<?xml version="1.0" encoding="UTF-8" standalone="no"?><svg xmlns="http://www.w3.org/2000/svg" width="263" height="161" viewBox="0 0 263 161"><title>MinervaBeta</title><g fill="none"><path d="M262.288 0h-262.857v152.139l12.113 9.813 13.904-10.483 13.915 9.717 12.607-9.878 13.521 10.224 13.383-10.087 12.842 9.754 14.658-9.557 12.94 10.051 12.359-10.224 13.434 9.977 13.077-10.051 12.866 10.051 14.582-9.47 13.509 9.643 13.014-10.173 11.681 9.717 14.15-9.717 11.212 9.655 13.422-9.655-.332-151.445z" fill="#fff" stroke="#e5e5e5"/><path d="M262.435 151.289l-13.046 9.777-11.521-9.748-13.851 9.667-12.015-9.483v-151.674h50.509l.803 151.041" fill="#0f74fb"/><path d="M208.245 4h-6v6h6z" fill="#0e73fc"/><path d="M7.245 5h-4v4h4z" fill="#d8d8d8"/><path d="M80.245 41h118v94h-118v-94z" fill="#e5e5e5"/><path d="M210.755 14.5h-209.51" fill="#e5e5e5" stroke="#e5e5e5"/><path d="M194.245 6v2h2v-2h-2z" fill="#d8d8d8"/><path d="M198.245 4h-188v6h188z" stroke="#d8d8d8"/><path d="M11.245 41h57v94h-57v-94z" fill="#e5e5e5"/><path d="M141.245 26h57v10h-57v-10z" fill="#d8d8d8"/><path d="M257.245 5h-4v4h4z" fill="#fff"/><path d="M250.245 5h-31v4h31z" fill="#fff"/><path d="M257.245 15h-4v4h4z" fill="#fff"/><path d="M250.245 15h-31v4h31z" fill="#fff"/><path d="M257.245 25h-4v4h4z" fill="#fff"/><path d="M250.245 25h-31v4h31z" fill="#fff"/><path d="M257.245 44h-4v4h4z" fill="#fff"/><path d="M250.245 44h-31v4h31z" fill="#fff"/><path d="M257.245 55h-4v4h4z" fill="#fff"/><path d="M250.245 55h-31v4h31z" fill="#fff"/><path d="M257.245 65h-4v4h4z" fill="#fff"/><path d="M250.245 65h-31v4h31z" fill="#fff"/><path d="M257.245 75h-4v4h4z" fill="#fff"/><path d="M250.245 75h-31v4h31z" fill="#fff"/></g></svg>