<?xml version="1.0" encoding="UTF-8" standalone="no"?><svg width="263" height="161" viewBox="0 0 263 161" xmlns="http://www.w3.org/2000/svg" xmlns:sketch="http://www.bohemiancoding.com/sketch/ns"><title>MinervaBeta</title><g sketch:type="MSPage" fill="none"><path d="M-.043 0h262.857v152.139l-12.113 9.813-13.904-10.483-13.915 9.717-12.607-9.878-13.521 10.224-13.383-10.087-12.842 9.754-14.658-9.557-12.94 10.051-12.359-10.224-13.434 9.977-13.077-10.051-12.866 10.051-14.582-9.47-13.509 9.643-13.014-10.173-11.681 9.717-14.15-9.717-11.212 9.655-13.422-9.655.332-151.445z" stroke="#E5E5E5" fill="#fff" sketch:type="MSShapeGroup"/><path d="M-.19 151.289l13.046 9.777 11.521-9.748 13.851 9.667 12.015-9.483v-151.674h-50.509l-.803 151.041" fill="#0F74FB" sketch:type="MSShapeGroup"/><path fill="#0E73FC" sketch:type="MSShapeGroup" d="M54 4h6v6h-6z"/><path fill="#D8D8D8" sketch:type="MSShapeGroup" d="M255 5h4v4h-4z"/><path d="M182 41h-118v94h118v-94z" fill="#E5E5E5" sketch:type="MSShapeGroup"/><path d="M51.49 14.5h209.51" stroke="#E5E5E5" fill="#E5E5E5" sketch:type="MSShapeGroup"/><path d="M68 6v2h-2v-2h2z" fill="#D8D8D8" sketch:type="MSShapeGroup"/><path stroke="#D8D8D8" sketch:type="MSShapeGroup" d="M64 4h188v6h-188z"/><path d="M251 41h-57v94h57v-94z" fill="#E5E5E5" sketch:type="MSShapeGroup"/><path d="M121 26h-57v10h57v-10z" fill="#D8D8D8" sketch:type="MSShapeGroup"/><path id="Rectangle-4" fill="#fff" sketch:type="MSShapeGroup" d="M5 5h4v4h-4z"/><path id="Rectangle-4-copy" fill="#fff" sketch:type="MSShapeGroup" d="M12 5h31v4h-31z"/><path id="Rectangle-4" fill="#fff" sketch:type="MSShapeGroup" d="M5 15h4v4h-4z"/><path id="Rectangle-4-copy" fill="#fff" sketch:type="MSShapeGroup" d="M12 15h31v4h-31z"/><path id="Rectangle-4" fill="#fff" sketch:type="MSShapeGroup" d="M5 25h4v4h-4z"/><path id="Rectangle-4-copy" fill="#fff" sketch:type="MSShapeGroup" d="M12 25h31v4h-31z"/><path id="Rectangle-4" fill="#fff" sketch:type="MSShapeGroup" d="M5 44h4v4h-4z"/><path id="Rectangle-4-copy" fill="#fff" sketch:type="MSShapeGroup" d="M12 44h31v4h-31z"/><path id="Rectangle-4" fill="#fff" sketch:type="MSShapeGroup" d="M5 55h4v4h-4z"/><path id="Rectangle-4-copy" fill="#fff" sketch:type="MSShapeGroup" d="M12 55h31v4h-31z"/><path fill="#fff" sketch:type="MSShapeGroup" d="M5 65h4v4h-4z"/><path fill="#fff" sketch:type="MSShapeGroup" d="M12 65h31v4h-31z"/><path fill="#fff" sketch:type="MSShapeGroup" d="M5 75h4v4h-4zM12 75h31v4h-31z"/></g></svg>