<?xml version="1.0" encoding="UTF-8"?>
<!DOCTYPE svg PUBLIC "-//W3C//DTD SVG 1.1//EN" "http://www.w3.org/Graphics/SVG/1.1/DTD/svg11.dtd">
<svg version="1.1" xmlns="http://www.w3.org/2000/svg" xmlns:xlink="http://www.w3.org/1999/xlink" x="0px" y="0px" width="264" height="162" viewBox="0, 0, 264, 162">
  <g id="beta-nearby">
    <path d="M24.833,151.362 L13.366,161.357 L0.5,151.749 L0.5,0.5 L263.5,0.5 L263.5,152.249 L254.5,158.954 L254.5,42.5 L215.5,42.5 L215.5,155.1 L211.107,151.37 L203.5,156.7 L203.5,42.5 L48.5,42.5 L48.5,153.349 L38.749,161.38 L24.833,151.362 L24.833,151.362 z M24.833,151.362" fill="#FFFFFF"/>
    <path d="M263,1 L263,151.998 L255,157.958 L255,43 L255,42 L254,42 L216,42 L215,42 L215,43 L215,154.019 L211.726,151.241 L211.137,150.742 L210.504,151.181 L204,155.738 L204,43 L204,42 L203,42 L49,42 L48,42 L48,43 L48,153.099 L38.743,160.76 L25.448,151.192 L24.804,150.726 L24.206,151.247 L13.342,160.717 L1,151.499 L1,1 L263,1 L263,1 L263,1 z M264,0 L0,0 L0,152 L13.391,162 L24.864,152 L38.755,162 L49,153.6 L49,43 L203,43 L203,157.66 L211.078,152 L216,156.18 L216,43 L254,43 L254,159.95 L264,152.5 L264,0 L264,0 L264,0 L264,0 L264,0 z M264,0" fill="#E4E4E4"/>
    <path d="M203,43 L49,43 L49,112.701 L49,153.6 L51.145,152 L63.7,162 L77.509,152 L91.738,162 L104.71,152 L117.683,162 L131.494,152 L143.63,162 L157.022,152 L171.251,162 L184.223,152 L197.198,162 L203.002,157.66 L203.002,43 L203,43 z M203,43" fill="#E4E4E4"/>
    <path d="M11,36 C11,28.268 17.268,22 25,22 C32.732,22 39,28.268 39,36 C39,43.732 32.732,50 25,50 C17.268,50 11,43.732 11,36 C11,36 11,43.732 11,36 L11,36 L11,36 L11,36 z M11,36" fill="#E4E4E4"/>
    <path d="M224.738,162 L237.71,152 L250.684,162 L254,159.599 L254,43 L216,43 L216,155.859 z" fill="#F1F1F1"/>
    <path d="M38,107 L38,72 L13,72 L13,107 L38,107 L38,107 L38,107 L38,107 L38,107 z M38,107" fill="#E4E4E4"/>
    <path d="M232.51,5 L258.51,5 L258.51,11 L232.51,11 L232.51,5 L232.51,5 L232.51,5 L232.51,5 L232.51,5 z M232.51,5" fill="#E4E4E4"/>
    <path d="M208.51,5 L208.51,11 L230.51,11 L230.51,5 L208.51,5 L208.51,5 z M208.51,5" fill="#E4E4E4"/>
    <path d="M142,6 L142,10 L50,10 L50,6 L142,6 L142,6 L142,6 z M143,5 L49,5 L49,11 L143,11 L143,5 L143,5 L143,5 L143,5 L143,5 z M143,5" fill="#E4E4E4"/>
    <path d="M184.51,5 L184.51,11 L206.51,11 L206.51,5 L184.51,5 L184.51,5 z M184.51,5" fill="#E4E4E4"/>
    <path d="M161.51,5 L161.51,11 L174.51,11 L174.51,5 L161.51,5 L161.51,5 z M161.51,5" fill="#E4E4E4"/>
    <path d="M176.51,5 L176.51,11 L182.51,11 L182.51,5 L176.51,5 L176.51,5 z M176.51,5" fill="#E4E4E4"/>
    <path d="M153.51,5 L153.51,11 L159.51,11 L159.51,5 L153.51,5 L153.51,5 z M153.51,5" fill="#E4E4E4"/>
    <path d="M9,5 L9,11 L41,11 L41,5 L9,5 L9,5 z M9,5" fill="#E4E4E4"/>
    <path d="M2,14.5 L262,14.5" fill-opacity="0" stroke="#E4E4E4" stroke-width="1" stroke-miterlimit="10"/>
    <path d="M52,7 L52,9 L54,9 L54,7 L52,7 L52,7 z M52,7" fill="#E4E4E4"/>
    <path d="M13,54 L38,54 L38,59 L13,59 L13,54 z M13,54" fill="#E4E4E4"/>
    <path d="M141,16 L199,16 L199,75 L141,75 L141,16 z M141,16" fill="#1480F7"/>
    <path d="M179.005,34.506 C174.315,29.806 166.735,29.843 162.045,34.544 C157.355,39.244 157.32,46.856 162.011,51.556 L170.486,60 L178.979,51.489 C183.67,46.789 183.695,39.207 179.005,34.506 L179.005,34.506 L179.005,34.506 z M170.51,48 C167.197,48 164.51,45.538 164.51,42.5 C164.51,39.462 167.197,37 170.51,37 C173.824,37 176.51,39.462 176.51,42.5 C176.51,45.538 173.824,48 170.51,48 L170.51,48 L170.51,48 z M170.51,48" fill="#FFFFFF"/>
  </g>
  <defs/>
</svg>
