<?xml version="1.0" encoding="UTF-8"?><svg xmlns="http://www.w3.org/2000/svg" width="264" height="162" viewBox="0, 0, 264, 162"><g><path d="M24.833 151.362l-11.467 9.995-12.866-9.608v-151.249h263v151.749l-9 6.705v-116.454h-39v112.6l-4.393-3.73-7.607 5.33v-114.2h-155v110.849l-9.751 8.031-13.916-10.018zm0 0" fill="#fff"/><path d="M263 1v150.998l-8 5.96v-115.958h-40v112.019l-3.274-2.778-.589-.499-.633.439-6.504 4.557v-113.738h-156v111.099l-9.257 7.661-13.295-9.568-.644-.466-.598.521-10.864 9.47-12.342-9.218v-150.499h262zm1-1h-264v152l13.391 10 11.473-10 13.891 10 10.245-8.4v-110.6h154v114.66l8.078-5.66 4.922 4.18v-113.18h38v116.95l10-7.45v-152.5zm0 0M203 43h-154v110.6l2.145-1.6 12.555 10 13.809-10 14.229 10 12.972-10 12.973 10 13.811-10 12.136 10 13.392-10 14.229 10 12.972-10 12.975 10 5.804-4.34v-114.66h-.002zm0 0M11 36c0-7.732 6.268-14 14-14s14 6.268 14 14-6.268 14-14 14-14-6.268-14-14zm0 0" fill="#E4E4E4"/><path d="M224.738 162l12.972-10 12.974 10 3.316-2.401v-116.599h-38v112.859z" fill="#F1F1F1"/><path d="M38 107v-35h-25v35h25zm0 0M232.51 5h26v6h-26v-6zm0 0M208.51 5v6h22v-6h-22zm0 0M142 6v4h-92v-4h92zm1-1h-94v6h94v-6zm0 0M184.51 5v6h22v-6h-22zm0 0M161.51 5v6h13v-6h-13zm0 0M176.51 5v6h6v-6h-6zm0 0M153.51 5v6h6v-6h-6zm0 0M9 5v6h32v-6h-32zm0 0" fill="#E4E4E4"/><path d="M2 14.5h260" stroke="#E4E4E4" stroke-miterlimit="10" fill="none"/><path d="M52 7v2h2v-2h-2zm0 0M13 54h25v5h-25v-5zm0 0" fill="#E4E4E4"/><path d="M141 16h58v59h-58v-59zm0 0" fill="#1480F7"/><path d="M179.005 34.506c-4.69-4.7-12.27-4.663-16.96.038-4.69 4.7-4.725 12.312-.034 17.012l8.475 8.444 8.493-8.511c4.691-4.7 4.716-12.282.026-16.983zm-8.495 13.494c-3.313 0-6-2.462-6-5.5s2.687-5.5 6-5.5c3.314 0 6 2.462 6 5.5s-2.686 5.5-6 5.5zm0 0" fill="#fff"/></g></svg>