<?xml version="1.0" encoding="utf-8"?><svg xmlns="http://www.w3.org/2000/svg" width="264" height="162" viewBox="0 0 264 162"><path fill="#fff" d="M24.833 151.361l-11.467 9.996-12.866-9.608v-151.249h263v151.749l-9 6.705v-116.454h-39v112.6l-4.393-3.731-7.607 5.33v-114.199h-155v110.85l-9.751 8.03z"/><path fill="#E5E5E5" d="M263 1v150.998l-8 5.96v-115.958h-40v112.02l-3.274-2.78-.589-.497-.633.439-6.504 4.556v-113.738h-156v111.1l-9.257 7.66-13.295-9.569-.646-.464-.598.521-10.864 9.47-12.34-9.219v-150.499h262m1-1h-264v152l13.391 10 11.475-10 13.891 10 10.243-8.4v-110.6h154v114.66l8.078-5.66 4.922 4.18v-113.18h38v116.95l10-7.45v-152.5zm-61 157.66v-114.66h-154v110.6l2.145-1.6 12.557 10 13.809-10 14.229 10 12.972-10 12.973 10 13.812-10 12.136 10 13.392-10 14.229 10 12.972-10 12.976 10 5.798-4.34zM11 36c0-7.732 6.268-14 14-14s14 6.268 14 14-6.268 14-14 14-14-6.268-14-14zM254 159.95v-116.95h-38v113.18l7.551 5.82 13.812-10 13.891 10 2.746-2.05zm-216-52.95v-35h-25v35h25z"/><path fill="#E5E5E5" stroke="#E5E5E5" d="M2 14.5h260"/><path fill="#E5E5E5" d="M38 59v-5h-25v5h25z"/><path fill="#36b" d="M202.959 69.5v-44.301h-47.464v44.301h47.464z"/><path fill="#fff" d="M189.06 41.201c0-5.424-4.398-9.833-9.834-9.833-5.428 0-9.829 4.409-9.829 9.833 0 1.794.485 3.471 1.324 4.918h-.008l8.514 17.206 8.523-17.206h-.015c.84-1.447 1.325-3.124 1.325-4.918zm-9.829 4.918c-2.717 0-4.915-2.202-4.915-4.918 0-2.711 2.198-4.915 4.915-4.915 2.716 0 4.911 2.204 4.911 4.915.002 2.716-2.194 4.918-4.911 4.918z"/></svg>