<?xml version="1.0" encoding="UTF-8" standalone="no"?><svg xmlns="http://www.w3.org/2000/svg" width="264" height="162" viewBox="0 0 264 162"><path fill="#fff" d="M263.5 151.749v-151.249h-263v151.749l9 6.705v-116.454h39v112.6l4.393-3.731 7.607 5.33v-114.199h155v110.85l9.751 8.03 13.916-10.019 11.467 9.996z"/><path d="M1 1v150.998l8 5.96v-115.958h40v112.02l3.274-2.78.589-.497.633.439 6.504 4.556v-113.738h156v111.1l9.257 7.66 13.295-9.569.646-.464.598.521 10.864 9.47 12.34-9.219v-150.499h-262m-1-1h264v152l-13.391 10-11.475-10-13.891 10-10.243-8.4v-110.6h-154v114.66l-8.078-5.66-4.922 4.18v-113.18h-38v116.95l-10-7.45v-152.5zM61 157.66v-114.66h154v110.6l-2.145-1.6-12.557 10-13.809-10-14.229 10-12.972-10-12.973 10-13.812-10-12.136 10-13.392-10-14.229 10-12.972-10-12.976 10-5.798-4.34zM253 36c0-7.732-6.268-14-14-14s-14 6.268-14 14 6.268 14 14 14 14-6.268 14-14zM10 159.95v-116.95h38v113.18l-7.551 5.82-13.812-10-13.891 10-2.746-2.05zM226 107v-35h25v35h-25z" fill="#e5e5e5"/><path d="M262 14.5h-260" fill="#e5e5e5" stroke="#e5e5e5"/><path d="M226 59v-5h25v5h-25z" fill="#e5e5e5"/><path d="M61.041 69.5v-44.301h47.464v44.301h-47.464z" fill="#36b"/><path d="M74.94 41.201c0-5.424 4.398-9.833 9.834-9.833 5.428 0 9.829 4.409 9.829 9.833 0 1.794-.485 3.471-1.324 4.918h.008l-8.514 17.206-8.523-17.206h.015c-.84-1.447-1.325-3.124-1.325-4.918zm9.829 4.918c2.717 0 4.915-2.202 4.915-4.918 0-2.711-2.198-4.915-4.915-4.915-2.716 0-4.911 2.204-4.911 4.915-.002 2.716 2.194 4.918 4.911 4.918z" fill="#fff"/></svg>