<?xml version="1.0" encoding="UTF-8" standalone="no"?>
<!-- Created with Inkscape (http://www.inkscape.org/) -->

<svg
   xmlns:dc="http://purl.org/dc/elements/1.1/"
   xmlns:cc="http://creativecommons.org/ns#"
   xmlns:rdf="http://www.w3.org/1999/02/22-rdf-syntax-ns#"
   xmlns:svg="http://www.w3.org/2000/svg"
   xmlns="http://www.w3.org/2000/svg"
   version="1.1"
   width="264"
   height="162"
   viewBox="0 0 264 162"
   id="Layer_1"
   xml:space="preserve"><metadata
     id="metadata30"><rdf:RDF><cc:Work
         rdf:about=""><dc:format>image/svg+xml</dc:format><dc:type
           rdf:resource="http://purl.org/dc/dcmitype/StillImage" /><dc:title></dc:title></cc:Work></rdf:RDF></metadata><defs
     id="defs28" /><g
     transform="matrix(-1,0,0,1,264,0)"
     id="g3"><polygon
       points="0.5,151.749 0.5,0.5 263.5,0.5 263.5,152.249 254.5,158.954 254.5,42.5 215.5,42.5 215.5,155.1 211.107,151.369 203.5,156.699 203.5,42.5 48.5,42.5 48.5,153.35 38.749,161.38 24.833,151.361 13.366,161.357 "
       id="polygon5"
       style="fill:#ffffff" /><g
       id="g7"><path
         d="m 263,1 v 150.998 l -8,5.96 V 43 42 h -1 -38 -1 v 1 111.02 l -3.274,-2.78 -0.589,-0.497 -0.633,0.439 -6.504,4.556 V 43 42 H 203 49 48 v 1 110.1 l -9.257,7.66 -13.295,-9.569 -0.646,-0.464 -0.598,0.521 -10.864,9.47 L 1,151.499 V 1 h 262 m 1,-1 H 0 V 152 L 13.391,162 24.866,152 38.757,162 49,153.6 V 43 H 203 V 157.66 L 211.078,152 216,156.18 V 43 h 38 v 116.95 l 10,-7.45 V 0 l 0,0 z"
         id="path9"
         style="fill:#e5e5e5" /></g></g><path
     d="M 61,157.66 V 43 h 154 v 110.6 l -2.145,-1.6 -12.557,10 -13.809,-10 -14.229,10 -12.972,-10 -12.973,10 -13.812,-10 -12.136,10 L 106.975,152 92.746,162 79.774,152 66.798,162 61,157.66 z"
     id="path11"
     style="fill:#e5e5e5" /><path
     d="m 253,36 c 0,-7.732 -6.268,-14 -14,-14 -7.732,0 -14,6.268 -14,14 0,7.732 6.268,14 14,14 7.732,0 14,-6.268 14,-14 z"
     id="Ellipse_1_"
     style="fill:#e5e5e5" /><path
     d="M 10,159.95 V 43 H 48 V 156.18 L 40.449,162 26.637,152 12.746,162 10,159.95 z"
     id="path14"
     style="fill:#e5e5e5" /><path
     d="M 226,107 V 72 h 25 v 35 h -25 z"
     id="path16"
     style="fill:#e5e5e5" /><path
     d="M 262,14.5 H 2"
     id="path18"
     style="fill:#e5e5e5;stroke:#e5e5e5" /><path
     d="m 226,59 v -5 h 25 v 5 h -25 z"
     id="path20"
     style="fill:#e5e5e5" /><path
     d="M 61.041,69.5 V 25.199 h 47.464 V 69.5 H 61.041 z"
     id="path22"
     style="fill:#3366bb" /><path
     d="m 74.94,41.201 c 0,-5.424 4.398,-9.833 9.834,-9.833 5.428,0 9.829,4.409 9.829,9.833 0,1.794 -0.485,3.471 -1.324,4.918 h 0.008 L 84.773,63.325 76.25,46.119 h 0.015 C 75.425,44.672 74.94,42.995 74.94,41.201 z m 9.829,4.918 c 2.717,0 4.915,-2.202 4.915,-4.918 0,-2.711 -2.198,-4.915 -4.915,-4.915 -2.716,0 -4.911,2.204 -4.911,4.915 -0.002,2.716 2.194,4.918 4.911,4.918 z"
     id="path24"
     style="fill:#ffffff" /></svg>