<?xml version="1.0" encoding="UTF-8"?>
<!DOCTYPE svg PUBLIC "-//W3C//DTD SVG 1.1//EN" "http://www.w3.org/Graphics/SVG/1.1/DTD/svg11.dtd">
<svg version="1.1" xmlns="http://www.w3.org/2000/svg" xmlns:xlink="http://www.w3.org/1999/xlink" x="0px" y="0px" width="264" height="162" viewBox="0, 0, 264, 162">
  <g id="beta-nearby">
    <path d="M239.167,151.362 L250.634,161.357 L263.5,151.749 L263.5,0.5 L0.5,0.5 L0.5,152.249 L9.5,158.954 L9.5,42.5 L48.5,42.5 L48.5,155.1 L52.893,151.37 L60.5,156.7 L60.5,42.5 L215.5,42.5 L215.5,153.349 L225.251,161.38 L239.167,151.362 L239.167,151.362 z M239.167,151.362" fill="#FFFFFF"/>
    <path d="M1,1 L1,151.998 L9,157.958 L9,43 L9,42 L10,42 L48,42 L49,42 L49,43 L49,154.019 L52.274,151.241 L52.863,150.742 L53.496,151.181 L60,155.738 L60,43 L60,42 L61,42 L215,42 L216,42 L216,43 L216,153.099 L225.257,160.76 L238.552,151.192 L239.196,150.726 L239.794,151.247 L250.658,160.717 L263,151.499 L263,1 L1,1 L1,1 L1,1 z M0,0 L264,0 L264,152 L250.609,162 L239.136,152 L225.245,162 L215,153.6 L215,43 L61,43 L61,157.66 L52.922,152 L48,156.18 L48,43 L10,43 L10,159.95 L0,152.5 L0,0 L0,0 L0,0 L0,0 L0,0 z M0,0" fill="#E4E4E4"/>
    <path d="M61,43 L215,43 L215,112.701 L215,153.6 L212.855,152 L200.3,162 L186.491,152 L172.262,162 L159.29,152 L146.317,162 L132.506,152 L120.37,162 L106.978,152 L92.749,162 L79.777,152 L66.802,162 L60.998,157.66 L60.998,43 L61,43 z M61,43" fill="#E4E4E4"/>
    <path d="M253,36 C253,28.268 246.732,22 239,22 C231.268,22 225,28.268 225,36 C225,43.732 231.268,50 239,50 C246.732,50 253,43.732 253,36 C253,36 253,43.732 253,36 L253,36 L253,36 L253,36 z M253,36" fill="#E4E4E4"/>
    <path d="M39.262,162 L26.29,152 L13.316,162 L10,159.599 L10,43 L48,43 L48,155.859 z" fill="#F1F1F1"/>
    <path d="M226,107 L226,72 L251,72 L251,107 L226,107 L226,107 L226,107 L226,107 L226,107 z M226,107" fill="#E4E4E4"/>
    <path d="M31.49,5 L5.49,5 L5.49,11 L31.49,11 L31.49,5 L31.49,5 L31.49,5 L31.49,5 L31.49,5 z M31.49,5" fill="#E4E4E4"/>
    <path d="M55.49,5 L55.49,11 L33.49,11 L33.49,5 L55.49,5 L55.49,5 z M55.49,5" fill="#E4E4E4"/>
    <path d="M122,6 L122,10 L214,10 L214,6 L122,6 L122,6 L122,6 z M121,5 L215,5 L215,11 L121,11 L121,5 L121,5 L121,5 L121,5 L121,5 z M121,5" fill="#E4E4E4"/>
    <path d="M79.49,5 L79.49,11 L57.49,11 L57.49,5 L79.49,5 L79.49,5 z M79.49,5" fill="#E4E4E4"/>
    <path d="M102.49,5 L102.49,11 L89.49,11 L89.49,5 L102.49,5 L102.49,5 z M102.49,5" fill="#E4E4E4"/>
    <path d="M87.49,5 L87.49,11 L81.49,11 L81.49,5 L87.49,5 L87.49,5 z M87.49,5" fill="#E4E4E4"/>
    <path d="M110.49,5 L110.49,11 L104.49,11 L104.49,5 L110.49,5 L110.49,5 z M110.49,5" fill="#E4E4E4"/>
    <path d="M255,5 L255,11 L223,11 L223,5 L255,5 L255,5 z M255,5" fill="#E4E4E4"/>
    <path d="M262,14.5 L2,14.5" fill-opacity="0" stroke="#E4E4E4" stroke-width="1" stroke-miterlimit="10"/>
    <path d="M212,7 L212,9 L210,9 L210,7 L212,7 L212,7 z M212,7" fill="#E4E4E4"/>
    <path d="M251,54 L226,54 L226,59 L251,59 L251,54 z M251,54" fill="#E4E4E4"/>
    <path d="M123,16 L65,16 L65,75 L123,75 L123,16 z M123,16" fill="#1480F7"/>
    <path d="M84.995,34.506 C89.685,29.806 97.265,29.843 101.955,34.544 C106.645,39.244 106.68,46.856 101.989,51.556 L93.514,60 L85.021,51.489 C80.33,46.789 80.305,39.207 84.995,34.506 L84.995,34.506 L84.995,34.506 z M93.49,48 C96.803,48 99.49,45.538 99.49,42.5 C99.49,39.462 96.803,37 93.49,37 C90.176,37 87.49,39.462 87.49,42.5 C87.49,45.538 90.176,48 93.49,48 L93.49,48 L93.49,48 z M93.49,48" fill="#FFFFFF"/>
  </g>
  <defs/>
</svg>
