<?xml version="1.0" encoding="UTF-8"?><svg xmlns="http://www.w3.org/2000/svg" width="264" height="162" viewBox="0, 0, 264, 162"><g><path d="M239.167 151.362l11.467 9.995 12.866-9.608v-151.249h-263v151.749l9 6.705v-116.454h39v112.6l4.393-3.73 7.607 5.33v-114.2h155v110.849l9.751 8.031 13.916-10.018zm0 0" fill="#fff"/><path d="M1 1v150.998l8 5.96v-115.958h40v112.019l3.274-2.778.589-.499.633.439 6.504 4.557v-113.738h156v111.099l9.257 7.661 13.295-9.568.644-.466.598.521 10.864 9.47 12.342-9.218v-150.499h-262zm-1-1h264v152l-13.391 10-11.473-10-13.891 10-10.245-8.4v-110.6h-154v114.66l-8.078-5.66-4.922 4.18v-113.18h-38v116.95l-10-7.45v-152.5zm0 0M61 43h154v110.6l-2.145-1.6-12.555 10-13.809-10-14.229 10-12.972-10-12.973 10-13.811-10-12.136 10-13.392-10-14.229 10-12.972-10-12.975 10-5.804-4.34v-114.66h.002zm0 0M253 36c0-7.732-6.268-14-14-14s-14 6.268-14 14 6.268 14 14 14 14-6.268 14-14zm0 0" fill="#E4E4E4"/><path d="M39.262 162l-12.972-10-12.974 10-3.316-2.401v-116.599h38v112.859z" fill="#F1F1F1"/><path d="M226 107v-35h25v35h-25zm0 0M31.49 5h-26v6h26v-6zm0 0M55.49 5v6h-22v-6h22zm0 0M122 6v4h92v-4h-92zm-1-1h94v6h-94v-6zm0 0M79.49 5v6h-22v-6h22zm0 0M102.49 5v6h-13v-6h13zm0 0M87.49 5v6h-6v-6h6zm0 0M110.49 5v6h-6v-6h6zm0 0M255 5v6h-32v-6h32zm0 0" fill="#E4E4E4"/><path d="M262 14.5h-260" stroke="#E4E4E4" stroke-miterlimit="10" fill="none"/><path d="M212 7v2h-2v-2h2zm0 0M251 54h-25v5h25v-5zm0 0" fill="#E4E4E4"/><path d="M123 16h-58v59h58v-59zm0 0" fill="#1480F7"/><path d="M84.995 34.506c4.69-4.7 12.27-4.663 16.96.038 4.69 4.7 4.725 12.312.034 17.012l-8.475 8.444-8.493-8.511c-4.691-4.7-4.716-12.282-.026-16.983zm8.495 13.494c3.313 0 6-2.462 6-5.5s-2.687-5.5-6-5.5c-3.314 0-6 2.462-6 5.5s2.686 5.5 6 5.5zm0 0" fill="#fff"/></g></svg>