<svg xmlns="http://www.w3.org/2000/svg" width="121" height="147"><g fill="none" fill-rule="evenodd"><path fill="#A2A9B1" fill-rule="nonzero" d="M99.318 135.058a2.474 2.474 0 0 0-.057-.097 2.125 2.125 0 0 1-.076-.078l.122.174h.01zm.075.012a.23.23 0 0 0 .017.011l-.017-.01zm-98.1-.012a.467.467 0 0 1 .019-.006l.086-.172a2.17 2.17 0 0 1-.071.093 2.102 2.102 0 0 0-.034.085zm.781.293a.206.206 0 0 0 .005.02l-.005-.02zM.054 69.273L.303 3.75a3.01 3.01 0 0 1 3.007-3h83.699v12.92a1 1 0 0 0 1 .992h12.757v120.404c0 2.02-1.665 2.64-3.035 1.189-.202-.307-.338-.487-.576-.68-.42-.34-.97-.546-1.703-.546-.664 0-.902.136-1.422.701-.836.904-1.39 1.302-2.276 1.548-1.292.36-2.08-.097-2.97-1.212-.685-.86-.932-1.037-1.35-1.037-.526 0-.785.165-1.412.83-.987 1.044-1.626 1.456-2.79 1.456-1.17 0-1.8-.426-2.65-1.421-.609-.711-.842-.865-1.393-.865-.58 0-.889.186-1.54.846-1.032 1.044-1.675 1.44-2.764 1.44-1.107 0-1.732-.413-2.56-1.35-.675-.765-.945-.936-1.535-.936-.595 0-.872.172-1.467.82-.971 1.056-1.61 1.466-2.746 1.466-1.185 0-1.806-.434-2.658-1.46-.568-.683-.777-.826-1.28-.826-.592 0-.84.136-1.356.664l-.255.262c-.677.685-1.266 1.084-2.17 1.326-1.317.353-2.136-.089-3.195-1.224-.776-.836-1.062-1.028-1.472-1.028-.49 0-.74.162-1.36.826-.979 1.047-1.609 1.46-2.765 1.46-1.174 0-1.784-.445-2.557-1.46-.527-.69-.72-.826-1.244-.826-.574 0-.877.181-1.567.858-1.053 1.03-1.71 1.428-2.86 1.428-1.173 0-1.82-.406-2.798-1.405-.696-.711-.97-.881-1.506-.881-.5 0-.688.132-1.212.775-.872 1.07-1.502 1.511-2.741 1.511-1.22 0-1.865-.417-2.842-1.458-.632-.673-.87-.828-1.376-.828-.496 0-.716.147-1.296.805-.93 1.055-1.563 1.481-2.77 1.481-1.186 0-1.822-.422-2.705-1.425-.622-.705-.861-.861-1.415-.861-.57 0-.844.17-1.483.835-1 1.043-1.65 1.451-2.823 1.451-1.245 0-1.916-.482-2.718-1.538-.488-.645-.626-.748-.932-.748-.307 0-.593.197-1.284.89-1.318 1.324-2.136 1.776-3.496 1.35-.84-.262-1.389-.658-1.991-1.307l-.246-.27c-.488-.535-.717-.663-1.366-.663-.702 0-1.155.175-1.45.448a.952.952 0 0 0-.224.285c-1.349 1.965-3.11 1.381-3.11-.68v-65.81z"/><path fill="#F8F9FA" d="M2.054 69.275v64.714c.666-.606 1.598-.958 2.784-.958 1.294 0 2.01.402 2.843 1.314l.235.258c.386.415.663.616 1.122.76.39.122.659-.027 1.437-.808 1.112-1.117 1.705-1.524 2.746-1.524 1.106 0 1.693.44 2.446 1.433.54.713.736.853 1.204.853.482 0 .725-.153 1.325-.778 1.037-1.08 1.728-1.508 2.98-1.508 1.27 0 1.952.443 2.866 1.482.588.667.794.804 1.255.804.475 0 .687-.143 1.259-.791.938-1.064 1.58-1.495 2.807-1.495 1.213 0 1.855.416 2.83 1.454.634.676.876.832 1.388.832.48 0 .663-.128 1.181-.764.877-1.076 1.516-1.522 2.772-1.522 1.222 0 1.894.418 2.897 1.443.67.683.923.843 1.406.843.482 0 .752-.164 1.395-.792 1.099-1.077 1.797-1.494 3.033-1.494 1.288 0 1.967.476 2.776 1.536.49.644.635.75 1.025.75.442 0 .674-.153 1.272-.792 1-1.07 1.653-1.494 2.853-1.494 1.138 0 1.808.45 2.78 1.497.758.814.972.93 1.37.823.505-.136.814-.345 1.264-.8l.249-.255c.857-.877 1.564-1.265 2.785-1.265 1.248 0 1.906.45 2.78 1.504.544.654.728.782 1.158.782.431 0 .647-.138 1.177-.716 1.034-1.124 1.752-1.57 3.036-1.57 1.29 0 2.017.459 2.92 1.48.598.679.79.806 1.175.806.41 0 .654-.15 1.219-.722 1.115-1.13 1.837-1.564 3.085-1.564 1.274 0 1.961.452 2.85 1.493.569.664.76.793 1.192.793.46 0 .697-.152 1.294-.785 1.014-1.075 1.684-1.501 2.908-1.501 1.19 0 1.886.498 2.727 1.555.63.79.743.855 1.058.767.468-.13.738-.324 1.16-.779 1.043-1.135 1.76-1.543 3.074-1.543 1.204 0 2.196.37 2.963.993.13.105.247.211.351.317V16.663H88.01a3 3 0 0 1-3-2.993V2.752H3.31a1.01 1.01 0 0 0-1.006 1.006l-.249 65.517z"/><path fill="#C8CCD1" d="M86.81 16.79a1.551 1.551 0 0 1-1.545-1.56V2.56c0-.63.377-1.201.954-1.441a1.535 1.535 0 0 1 1.684.338l12.392 12.5c.396.283.65.748.65 1.273 0 .862-.69 1.56-1.545 1.56-.008-.002-12.59 0-12.59 0z"/><g transform="translate(1.806 12.278)"><ellipse cx="13.661" cy="6.767" fill="#A2A9B1" rx="6.83" ry="6.767"/><path fill="#A2A9B1" d="M64.778 15.79s16.463 11.089 20.167 7.009c3.704-4.08 0 5.923 0 5.923H52.439l12.339-12.933zM0 21.805s13.12 9.163 31.404 9.163 4.474 5.874 4.474 5.874H.04L0 21.805z"/><path fill="#C8CCD1" d="M2.084 36.931s71.864-34.262 62.86-17.018c-9.005 17.244 32.253-4.05 32.253-4.05V36.93H2.084z"/></g><path fill="#C8CCD1" d="M10.077 63.406c0-.415.336-.752.755-.752h53.377a.752.752 0 1 1 0 1.504H10.832a.752.752 0 0 1-.755-.752zm0 18.045c0-.415.327-.752.748-.752H70.23c.413 0 .748.334.748.752a.745.745 0 0 1-.748.752H10.825a.748.748 0 0 1-.748-.752zm0 40.602c0-.416.34-.752.746-.752H33.39a.753.753 0 0 1 0 1.504H10.823a.747.747 0 0 1-.746-.752zm26.316 0c0-.416.336-.752.755-.752h53.377a.752.752 0 1 1 0 1.504H37.148a.752.752 0 0 1-.755-.752zM10.077 91.977c0-.415.342-.751.761-.751h11.26c.42 0 .76.333.76.751a.757.757 0 0 1-.76.752h-11.26a.755.755 0 0 1-.761-.752zm68.42 0c0-.415.343-.751.762-.751h11.26c.42 0 .76.333.76.751a.757.757 0 0 1-.76.752h-11.26a.755.755 0 0 1-.761-.752zm-53.383 0c0-.415.34-.751.743-.751H75.5a.752.752 0 0 1 0 1.504H25.857a.745.745 0 0 1-.743-.753zM10.077 116.79c0-.415.342-.751.761-.751h11.26c.42 0 .76.333.76.751a.757.757 0 0 1-.76.752h-11.26a.755.755 0 0 1-.761-.752zm54.135 0c0-.415.332-.751.744-.751h26.332c.41 0 .744.333.744.751a.747.747 0 0 1-.744.752H64.956a.746.746 0 0 1-.744-.752zm-39.098 0c0-.415.342-.751.753-.751h35.337a.75.75 0 0 1 .752.751.755.755 0 0 1-.752.752H25.867a.75.75 0 0 1-.753-.752zM91.28 81.451a.75.75 0 0 1-.753.752h-16.54a.757.757 0 0 1-.752-.752.75.75 0 0 1 .752-.752h16.54c.408 0 .753.337.753.752zm-81.203 26.316c0-.415.327-.752.748-.752H70.23c.413 0 .748.334.748.752a.745.745 0 0 1-.748.752H10.825a.748.748 0 0 1-.748-.752zm40.601-31.579c0-.415.339-.752.757-.752h9.013a.753.753 0 1 1 0 1.504h-9.013a.753.753 0 0 1-.757-.752zm12.782 0c0-.415.332-.752.744-.752h26.332c.41 0 .744.334.744.752a.747.747 0 0 1-.744.752H64.204a.746.746 0 0 1-.744-.752zm-53.383 0c0-.415.331-.752.749-.752h36.848a.75.75 0 0 1 .749.752.748.748 0 0 1-.75.752H10.827a.748.748 0 0 1-.75-.752zm0 26.316c0-.415.327-.752.752-.752h79.699a.75.75 0 0 1 .752.752.746.746 0 0 1-.752.752h-79.7a.75.75 0 0 1-.751-.752zm0-5.263c0-.416.327-.752.752-.752h79.699a.75.75 0 0 1 .752.752.746.746 0 0 1-.752.751h-79.7a.75.75 0 0 1-.751-.751zm0 30.075c0-.415.327-.752.752-.752h79.699a.75.75 0 0 1 .752.752.746.746 0 0 1-.752.752h-79.7a.75.75 0 0 1-.751-.752zm0-40.602c0-.415.327-.752.752-.752h79.699a.75.75 0 0 1 .752.752.746.746 0 0 1-.752.752h-79.7a.75.75 0 0 1-.751-.752zm0-28.571c0-.415.331-.752.749-.752h36.848a.75.75 0 0 1 .749.752.748.748 0 0 1-.75.752H10.827a.748.748 0 0 1-.75-.752z"/><g transform="translate(74 100)"><circle cx="23.5" cy="23.5" r="23.5" fill="#FFF"/><path fill="#72777D" d="M23.5 21.439a2.067 2.067 0 0 0-2.061 2.061 2.061 2.061 0 1 0 2.061-2.061zm0-17.316c-10.706 0-19.377 8.671-19.377 19.377 0 10.696 8.671 19.377 19.377 19.377s19.377-8.68 19.377-19.377c0-10.706-8.671-19.377-19.377-19.377zm3.801 24.003l-15.757 7.33 7.33-15.757 15.758-7.33-7.33 15.757z"/></g></g></svg>