<?xml version="1.0" encoding="UTF-8"?>
<svg width="24px" height="24px" viewBox="0 0 24 24" version="1.1" xmlns="http://www.w3.org/2000/svg" xmlns:xlink="http://www.w3.org/1999/xlink">
    <!-- Generator: Sketch 42 (36781) - http://www.bohemiancoding.com/sketch -->
    <title>icon-export</title>
    <desc>Created with Sketch.</desc>
    <defs>
        <path d="M9.6425,21.3639373 C10.8775,21.3639373 11.8777941,20.4079006 11.8777941,19.2275436 L7.40720588,19.2275436 C7.40720588,20.4079006 8.4075,21.3639373 9.6425,21.3639373 L9.6425,21.3639373 Z" id="path-1"></path>
        <mask id="mask-2" maskContentUnits="userSpaceOnUse" maskUnits="objectBoundingBox" x="0" y="0" width="4.47058824" height="2.13639373" fill="white">
            <use xlink:href="#path-1"></use>
        </mask>
    </defs>
    <g id="Page-1" stroke="none" stroke-width="1" fill="none" fill-rule="evenodd">
        <g id="icon-export">
            <g id="notificationIcon">
                <g id="Bell" transform="translate(2.000000, 1.000000)">
                    <use id="Page-1-Copy" stroke="#54595D" mask="url(#mask-2)" stroke-width="4" xlink:href="#path-1"></use>
                    <path d="M16.8931189,9.07967336 L16.8931189,13.0776005 L18.6615625,16.680843 L18.6615625,17.7765155 L0.6234375,17.7765155 L0.6234375,16.680843 L2.39188113,13.0776005 L2.39188113,9.07967336 C2.39188113,6.18559262 4.21611052,3.67023234 6.86870942,2.60954063 C7.13073689,1.32696472 8.2846917,0.382831237 9.6425,0.382831237 C11.0003083,0.382831237 12.1542631,1.32696472 12.4162906,2.60954063 C15.0688895,3.67023234 16.8931189,6.18559262 16.8931189,9.07967336 Z M10.9190307,3.97378136 L8.36596932,3.97378136 C5.92779571,4.52687101 4.11086703,6.61315771 4.11086703,9.11426164 L4.11086703,13.5877809 L2.40882612,16.0278823 L16.8761739,16.0278823 L15.174133,13.5877809 L15.174133,9.11426164 C15.1983007,5.03848258 11.5581859,4.02422393 10.9190307,3.97378136 Z" id="Combined-Shape" fill="#54595D"></path>
                </g>
            </g>
        </g>
    </g>
</svg>