<?xml version="1.0" encoding="UTF-8" standalone="no"?>
<svg xmlns="http://www.w3.org/2000/svg" width="48" height="48" viewBox="-282.375 419.5 48 48">
    <path d="M-249.122 464.146h11.915c1.095 0 2.192-.728 2.554-1.703.486-.97.242-2.187-.61-3.04-3.89-4.01-4.74-9.972-5.47-15.683-1.215-8.51-2.553-18.116-14.71-19.334v-1.58c0-1.58-1.214-2.797-2.795-2.797-1.582 0-2.797 1.213-2.797 2.793v1.58c-12.037 1.22-13.375 10.824-14.59 19.335-.85 5.71-1.58 11.672-5.47 15.68-.73.854-.974 1.948-.608 3.04.486.978 1.458 1.705 2.552 1.705h11.67m9.24 3.405c-1.95 0-3.41-1.46-3.53-3.404h7.05c-.118 1.823-1.7 3.405-3.52 3.405zm0-9h-15.445c2.31-4.496 3.04-9.483 3.65-14.104 1.336-9.847 2.43-14.59 11.793-14.59 9.483 0 10.573 4.744 11.914 14.59.605 4.62 1.337 9.606 3.646 14.105h-15.56z" id="path4" fill="#555"/>
</svg>
