<?xml version="1.0" encoding="UTF-8" standalone="no"?>
<svg xmlns="http://www.w3.org/2000/svg" viewBox="0 -410 2048 2048" width="24" height="24" fill="#777">
    <g id="g4">
        <path d="M1670.264-159.32q-108.757 0-108.757 124.825l1.236 109.993h216.278l-1.235-109.993q1.236-124.824-107.52-124.824zm0-144.596q102.577 0 171.787 77.86 69.21 77.86 69.21 190.324v111.23h108.757v484.46h-699.504V75.5h109.993V-36.968q0-112.464 69.21-189.09 69.208-76.623 170.55-77.86zm-469.632 984.992h170.55l-795.9 716.807-510.417 55.614L173.622 955.44l1027.01-918.254v164.37l-892.3 805.79q32.132 22.245 96.398 86.51l795.902-719.277v306.495z" id="path6" fill="#777"/>
    </g>
</svg>
