<?xml version="1.0" encoding="UTF-8"?><svg width="24" height="24" viewBox="0 0 24 24" xmlns="http://www.w3.org/2000/svg"><title>icon-export</title><g id="Page-1" fill="none" fill-rule="evenodd"><g id="icon-export" fill="#54595D"><g id="SearchIcon"><path d="M16.474 15.441c1.147-1.376 1.835-3.212 1.835-5.162a7.98 7.98 0 0 0-8.03-8.029 7.98 7.98 0 0 0-8.029 8.03 7.98 7.98 0 0 0 8.03 8.029c1.72 0 3.211-.459 4.473-1.377l4.473 4.474c.46.459 1.262.459 1.836 0l.688-.688-5.276-5.277zM4.544 10.28c0-3.211 2.524-5.735 5.735-5.735 3.212 0 5.736 2.524 5.736 5.735 0 3.212-2.524 5.736-5.736 5.736-3.211 0-5.735-2.638-5.735-5.736z" id="Page-1"/></g></g></g></svg>