<?xml version="1.0" encoding="UTF-8"?>
<svg width="20px" height="20px" viewBox="0 0 20 20" version="1.1" xmlns="http://www.w3.org/2000/svg" xmlns:xlink="http://www.w3.org/1999/xlink">
    <!-- Generator: sketchtool 41.2 (35397) - http://www.bohemiancoding.com/sketch -->
    <title>7C4F4673-7738-4B60-92D8-DB9437F6B241</title>
    <desc>Created with sketchtool.</desc>
    <defs></defs>
    <g id="Page-1" stroke="none" stroke-width="1" fill="none" fill-rule="evenodd">
        <g id="Header---Signed-in" transform="translate(-292.000000, -85.000000)" fill="#54595D">
            <g id="header" transform="translate(0.000000, 65.000000)">
                <g id="Actions" transform="translate(15.000000, 18.000000)">
                    <g id="SearchIcon" transform="translate(275.000000, 0.000000)">
                        <path d="M16.4735179,15.4411986 C17.6205768,14.0647143 18.3088235,12.2294454 18.3088235,10.2794339 C18.3088235,5.80591599 14.7529297,2.25002217 10.2794118,2.25002217 C5.80588924,2.25002217 2.25,5.80591599 2.25,10.2794339 C2.25,14.7529565 5.80588924,18.3088457 10.2794118,18.3088457 C12,18.3088457 13.491165,17.8500291 14.7529297,16.9323613 L19.2264591,21.4058839 C19.6852712,21.8647005 20.4882238,21.8647005 21.0617532,21.4058839 L21.75,20.7176417 L16.4735179,15.4411986 Z M4.54411765,10.2794339 C4.54411765,7.0676807 7.06766082,4.54413982 10.2794118,4.54413982 C13.491165,4.54413982 16.0147059,7.0676807 16.0147059,10.2794339 C16.0147059,13.4911849 13.491165,16.0147281 10.2794118,16.0147281 C7.06766082,16.0147281 4.54411765,13.3765065 4.54411765,10.2794339 Z" id="Page-1"></path>
                    </g>
                </g>
            </g>
        </g>
    </g>
</svg>