<svg xmlns="http://www.w3.org/2000/svg" width="210" height="229">
	<g fill="none" fill-rule="evenodd">
		<path d="M0 0h210v229H0z"/>
		<path fill="#36C" fill-rule="nonzero" d="M8.409 12.552l98.03 181.322a37.5 37.5 0 0 0 25.868 18.983l62.97 12.177a9.417 9.417 0 0 0 9.953-13.94l-96.843-168.46a47.556 47.556 0 0 0-27.64-21.873L17.148 1.798a7.5 7.5 0 0 0-8.74 10.754z"/>
		<path stroke="#454545" stroke-width="2.825" d="M3.984 14.998l94.753 175.259a47.085 47.085 0 0 0 32.48 23.836l58.516 11.315a9.417 9.417 0 0 0 9.952-13.94l-96.842-168.46a47.556 47.556 0 0 0-27.64-21.872L13.861 2.845a8.475 8.475 0 0 0-9.878 12.153z"/>
		<path stroke="#EAECF0" stroke-linecap="round" stroke-width="2.25" d="M148.622 201.53l19.341 3.798"/>
		<path fill="#EAF3FF" d="M20.5 17.5l93 165 77.08 17L98.67 39.897z"/>
		<g fill-rule="nonzero">
			<path fill="#FC3" d="M155.898 147.714l14.392-38.825 38.241-14.612-38.241-14.612-14.392-38.826-14.392 38.826-38.241 14.612 38.241 14.612z"/>
			<path stroke="#454545" stroke-width="2.825" d="M151.485 142.248l12.661-33.273 33.642-12.521-33.642-12.522-12.661-33.273-12.661 33.273-33.642 12.522 33.642 12.521z"/>
			<path fill="#FC3" d="M90.696 90.348l7.71-20.435 20.486-7.69-20.486-7.691-7.71-20.434-7.71 20.434L62.5 62.223l20.486 7.69zm18.798 69.375l7.71-20.435 20.486-7.69-20.486-7.691-7.71-20.434-7.71 20.434-20.487 7.691 20.487 7.69z"/>
			<path stroke="#454545" stroke-width="2.825" d="M92.834 90.348l6.753-17.746 17.942-6.678-17.942-6.679L92.834 41.5l-6.752 17.745-17.943 6.679 17.943 6.678zm18.521 61.059l5.065-13.309 13.457-5.009-13.457-5.009-5.065-13.309-5.064 13.309-13.457 5.009 13.457 5.009z"/>
		</g>
	</g>
</svg>
