<?xml version="1.0" encoding="UTF-8" standalone="no"?>
<svg xmlns="http://www.w3.org/2000/svg" viewBox="0 0 32 32" enable-background="new 0 0 40 40">
    <g fill="#575757">
        <path d="M22.496 11.403c-.057-1.1-.57-2.167-1.328-3.01-.776-.865-1.84-1.53-2.99-1.717l-14.825 13.3.01.006-.008-.004-1.188 5.346 5.48-.604.002.003.003-.003h.006l-.003-.004c2.963-2.657 11.472-10.293 14.84-13.313zM6.056 21.528c-.42-.423-.778-.683-1.27-1.02l13.316-12.04c.45.14 1.073.502 1.264 1.022L6.056 21.528zM21.61 17.58v1.317h-1.435v8.09h1.435V28.3h-3.104v-10.72h3.104zm5.12 10.72v-1.315h1.434v-8.09H26.73V17.58h3.103V28.3H26.73z"/>
    </g>
</svg>
