<?xml version="1.0" encoding="UTF-8" standalone="no"?>
<svg xmlns="http://www.w3.org/2000/svg" width="639.614" height="415.001" viewBox="2.5 791.5 639.61402 415.00101" enable-background="new 2.5 791.5 606.667 606.667">
    <path d="M417.5 1037.04v-76.08l-46.687-7.783c-3.46-12.536-8.646-24.64-14.7-35.447l27.236-38.474-53.605-54.037-38.475 27.234c-11.238-6.053-22.91-11.24-35.447-14.7L248.04 791.5h-76.08l-7.783 46.688c-12.536 3.458-24.64 8.646-35.447 14.698l-38.474-27.234-54.037 53.604 27.234 38.474c-6.053 11.24-11.24 22.91-14.7 35.88L2.5 960.96v76.082l46.255 7.782c3.458 12.536 8.646 24.64 14.7 35.88l-27.236 38.474 53.603 53.605 38.474-27.235c11.24 6.052 22.91 11.24 35.88 14.697l7.782 46.256h76.08l7.783-46.686c12.536-3.46 24.64-8.646 35.447-14.7l38.475 27.236 53.604-53.604-27.236-38.475c6.053-11.237 11.24-22.91 14.7-35.88l46.686-7.35zm-207.5 41.5c-44.094 0-79.54-35.878-79.54-79.54 0-44.094 35.878-79.54 79.54-79.54 43.662 0 79.54 35.446 79.54 79.54 0 44.095-35.445 79.54-79.54 79.54z" id="path4" fill="#555"/>
    <path d="M574.97 1059.195L642.114 944.6H507.807z" id="path6" fill="#414141" fill-rule="evenodd"/>
</svg>
