<?xml version="1.0" encoding="UTF-8" standalone="no"?>
<svg xmlns="http://www.w3.org/2000/svg" viewBox="0 0 24 24" enable-background="new 0 0 612 792">
    <path d="M3.065 16.536c1.765 1.766 4.073 2.732 6.583 2.732 2.187 0 4.25-.744 5.913-2.112l6.76 6.112s1.518-.398 1.89-2.086l-6.78-6.135c2.385-3.63 1.964-8.498-1.193-11.655C14.47 1.626 12.162.66 9.677.66c-2.488 0-4.823.97-6.585 2.71-3.656 3.647-3.63 9.537-.027 13.166zm1.54-11.11c.073-.1.175-.198.272-.272C6.17 3.887 7.86 3.166 9.672 3.166c1.812 0 3.504.72 4.794 1.988 2.635 2.635 2.66 6.934-.023 9.593-1.29 1.29-2.982 1.988-4.795 1.988-1.812 0-3.504-.72-4.794-1.988-2.534-2.534-2.66-6.634-.25-9.32z" id="path4" fill="#555"/>
</svg>
