<?xml version="1.0" encoding="UTF-8" standalone="no"?>
<svg
   xmlns:dc="http://purl.org/dc/elements/1.1/"
   xmlns:cc="http://creativecommons.org/ns#"
   xmlns:rdf="http://www.w3.org/1999/02/22-rdf-syntax-ns#"
   xmlns:svg="http://www.w3.org/2000/svg"
   xmlns="http://www.w3.org/2000/svg"
   xmlns:sodipodi="http://sodipodi.sourceforge.net/DTD/sodipodi-0.dtd"
   xmlns:inkscape="http://www.inkscape.org/namespaces/inkscape"
   viewBox="0 0 48 48"
   enable-background="new 0 0 612 792"
   id="svg2"
   version="1.1"
   inkscape:version="0.48.2 r9819"
   sodipodi:docname="search-white.svg"
   width="100%"
   height="100%">
  <metadata
     id="metadata10">
    <rdf:RDF>
      <cc:Work
         rdf:about="">
        <dc:format>image/svg+xml</dc:format>
        <dc:type
           rdf:resource="http://purl.org/dc/dcmitype/StillImage" />
        <dc:title />
      </cc:Work>
    </rdf:RDF>
  </metadata>
  <defs
     id="defs8" />
  <sodipodi:namedview
     pagecolor="#ffffff"
     bordercolor="#666666"
     borderopacity="1"
     objecttolerance="10"
     gridtolerance="10"
     guidetolerance="10"
     inkscape:pageopacity="0"
     inkscape:pageshadow="2"
     inkscape:window-width="1440"
     inkscape:window-height="788"
     id="namedview6"
     showgrid="false"
     inkscape:zoom="6.5103448"
     inkscape:cx="-3.5861991"
     inkscape:cy="24.3892"
     inkscape:window-x="103"
     inkscape:window-y="1102"
     inkscape:window-maximized="1"
     inkscape:current-layer="svg2" />
  <path
     d="m 5.9311042,33.828283 c 3.4706671,3.662023 8.0063058,5.666818 12.9403248,5.666818 4.298119,0 8.351079,-1.544017 11.622536,-4.38148 l 13.285099,12.675573 c 0,0 2.980331,-0.824561 3.715845,-4.324884 L 34.163842,30.740229 C 38.852704,23.214121 38.025252,13.117315 31.819412,6.5693597 28.348745,2.9073559 23.813126,0.90254115 18.925055,0.90254115 c -4.88805,0 -9.4773151,2.01288315 -12.9403242,5.61831035 C -1.2017817,14.0874 -1.1481551,26.302174 5.9312028,33.828283 z m 3.026299,-23.039125 c 0.1455439,-0.210189 0.3447732,-0.41227 0.5363247,-0.565882 2.5436191,-2.6272549 5.8610651,-4.1227828 9.4236701,-4.1227828 3.562623,0 6.887727,1.4955279 9.423689,4.1227828 5.179197,5.464737 5.225165,14.381269 -0.04591,19.894495 -2.535963,2.675781 -5.861066,4.122801 -9.423689,4.122801 -3.562604,0 -6.887708,-1.495527 -9.4236896,-4.122801 C 4.4678108,24.863242 4.2226522,16.358961 8.9574617,10.789158 z"
     id="path4"
     inkscape:connector-curvature="0"
     style="fill:#555555" />
  <path
     style="fill:#ffffff"
     d="m 37.17213,41.363593 -6.631278,-6.335207 -1.257891,0.908663 C 21.09956,41.848498 10.324188,40.001614 4.3116588,31.657001 3.1796392,30.085907 1.8799998,27.310413 1.334708,25.299503 0.82014652,23.401941 0.62830197,19.190485 0.95813003,17.033172 1.8890254,10.944431 5.7090373,5.600408 11.040616,2.92824 c 2.922523,-1.4647782 4.226968,-1.7591873 7.81411,-1.7636025 3.591341,-0.00391 5.179432,0.3385607 7.848747,1.6951089 7.772752,3.9501222 11.840891,12.9942066 9.825587,21.8437296 -0.295777,1.29874 -1.469291,4.255979 -2.372642,5.979005 -0.03399,0.06506 2.906329,2.951905 6.534223,6.415383 3.627874,3.463478 6.596151,6.430505 6.596151,6.593417 0,1.073547 -1.316871,2.857917 -2.619128,3.548928 l -0.864258,0.45861 -6.631276,-6.335226 z M 22.043663,33.921509 c 4.762805,-1.22638 8.805157,-5.50926 9.899628,-10.488701 0.387498,-1.763016 0.38195,-4.917843 -0.01172,-6.633835 C 31.763363,16.065412 31.276934,14.705287 30.850734,13.776502 30.21921,12.400222 29.759565,11.752503 28.366328,10.275593 26.905418,8.7269272 26.397557,8.3313992 24.874034,7.5558158 20.366703,5.261222 15.821824,5.5418583 11.605444,8.3751014 5.86179,12.234635 3.8953638,19.851762 6.9310207,26.481847 c 1.6035234,3.502238 4.9189563,6.346089 8.5776393,7.357552 1.754537,0.485061 4.820436,0.523587 6.534964,0.08205 z"
     id="path3363"
     inkscape:connector-curvature="0" />
</svg>
