<?xml version="1.0" encoding="UTF-8" standalone="no"?>
<svg xmlns="http://www.w3.org/2000/svg" viewBox="0 -410 2390.5 2047.9999" width="28" height="24">
    <g id="g4">
        <path d="M2157.676-3.692q0-123.588-106.458-123.588T1944.76-3.692v108.905h212.915V-3.692zm-106.458-265.533q77.09-1.223 138.273 47.722 107.682 85.656 100.34 291.23v35.485h106.46v477.224h-690.142V105.212h102.787q-1.223-138.273 20.802-208.02 22.026-69.75 83.208-118.695 61.183-48.946 138.273-47.722zm-215.363 1509.987v-1.223l-368.32-323.045-244.73 144.39L772.5 589.78l-73.42 29.367-476 621.615h1612.773zM21.178 1447.56V-113.82h1687.417q-18.355 45.275-19.578 94.22h-107.68v725.627h472.33v741.534H21.178z" id="path6" fill="#777"/>
    </g>
</svg>
