<?xml version="1.0" encoding="utf-8"?>
<!-- Generator: Adobe Illustrator 17.1.0, SVG Export Plug-In . SVG Version: 6.00 Build 0)  -->
<!DOCTYPE svg PUBLIC "-//W3C//DTD SVG 1.1//EN" "http://www.w3.org/Graphics/SVG/1.1/DTD/svg11.dtd">
<svg version="1.1" id="Layer_1" xmlns="http://www.w3.org/2000/svg" xmlns:xlink="http://www.w3.org/1999/xlink" x="0px" y="0px"
	 viewBox="0 0 24 24" enable-background="new 0 0 24 24" xml:space="preserve">
<g id="Layer_2">
</g>
<g id="Layer_2_1_">
	<g>
		<path fill="#999999" d="M20.7,4.6V3.5c0,0,0-3.5-3.5-3.5s-3.5,3.5-3.5,3.5v1.2h-1.2v6.9h9.2V4.6H20.7z M19,4.6h-3.5V3.5
			c0,0,0-1.7,1.7-1.7C19,1.7,19,3.5,19,3.5V4.6z"/>
		<path fill="#999999" d="M11.5,11.1l-7.8,8c-0.3-0.3-0.8-0.7-1.2-0.9c1.6-1.6,5.8-5.8,9-9.1V6.9L1.2,17.3L0,23l5.8-1.1l9.2-9.2
			h-3.5V11.1z"/>
	</g>
</g>
</svg>
