<?xml version="1.0" encoding="UTF-8" standalone="no"?><svg xmlns="http://www.w3.org/2000/svg" width="10" height="10"><defs><marker orient="auto" overflow="visible"><path d="M-.958-4.259c-1.134 0-2.056.922-2.056 2.056 0 .394.143.736.336 1.049l-.07.056c-.373-.513-.954-.867-1.636-.867-1.134 0-2.056.922-2.056 2.056s.922 2.056 2.056 2.056c.596 0 1.121-.265 1.496-.671-.075.213-.126.433-.126.671 0 1.134.922 2.056 2.056 2.056s2.056-.922 2.056-2.056c0-.476-.189-.896-.462-1.245.813.158 1.627.477 2.224 1.399-.443-.443-.727-1.248-.727-2.336l-.378-.028.35-.014c0-1.087.27-1.893.713-2.336-.575.889-1.354 1.216-2.14 1.385.243-.337.42-.728.42-1.175 0-1.134-.922-2.056-2.056-2.056z" fill-rule="evenodd" stroke="#000" stroke-width="NaN"/></marker><marker orient="auto" overflow="visible"><path d="M0-2.828l-2.828 2.828 2.828 2.828 2.828-2.828-2.828-2.828z" fill-rule="evenodd" stroke="#000" stroke-width="NaN"/></marker><marker orient="auto" overflow="visible"><path d="M10 0l4-4-14 4 14 4-4-4z" fill-rule="evenodd" stroke="#000" stroke-width="NaN"/></marker></defs><path fill="#fff" stroke="#06c" d="M9.5 3.518h-5.982v5.982h5.982z"/><path d="M5.245-.16h-5.234v5.39l1.571 1.544 1.31-1.31 2.725 2.725 2.688-2.688-2.808-2.808 1.31-1.31z" fill="#06f"/><path d="M1.016.845l-.022 4.884 1.817-1.817 2.881 2.881 1.227-1.227-2.881-2.881 1.85-1.851z" fill="#fff"/></svg>