<?xml version="1.0" encoding="utf-8"?><svg xmlns="http://www.w3.org/2000/svg" viewBox="0 0 57.2 59.8" enable-background="new 0 0 57.2 59.8"><path fill="#555" d="M35.9 47.2h9.8c.9 0 1.8-.6 2.1-1.4.4-.8.2-1.8-.5-2.5-3.2-3.3-3.9-8.2-4.5-12.9-1-7-2.1-14.9-12.1-15.9v-1.3c0-1.3-1-2.3-2.3-2.3-1.3 0-2.3 1-2.3 2.3v1.3c-9.9 1-11 8.9-12 15.9-.7 4.7-1.3 9.6-4.5 12.9-.6.7-.8 1.6-.5 2.5.4.8 1.2 1.4 2.1 1.4h9.6m7.6 2.8c-1.6 0-2.8-1.2-2.9-2.8h5.8c-.1 1.5-1.4 2.8-2.9 2.8zm0-7.4h-12.7c1.9-3.7 2.5-7.8 3-11.6 1.1-8.1 2-12 9.7-12 7.8 0 8.7 3.9 9.8 12 .5 3.8 1.1 7.9 3 11.6h-12.8z"/></svg>