<?xml version="1.0" encoding="utf-8"?><svg version="1.1" xmlns="http://www.w3.org/2000/svg" x="0px" y="0px" width="48px" height="48px" viewBox="-282.375 419.5 48 48" enable-background="new -282.375 419.5 48 48"><path fill="#555555" d="M-252.692,457.249h7.582c0.697,0,1.395-0.463,1.625-1.084c0.309-0.618,0.154-1.392-0.388-1.935c-2.476-2.552-3.016-6.345-3.48-9.979c-0.774-5.416-1.625-11.528-9.362-12.303v-1.006c0-1.005-0.772-1.779-1.778-1.779c-1.007,0-1.78,0.774-1.78,1.779v1.006c-7.66,0.775-8.511,6.887-9.285,12.303c-0.541,3.635-1.005,7.428-3.481,9.979c-0.464,0.543-0.619,1.239-0.386,1.935c0.309,0.621,0.928,1.084,1.624,1.084h7.427 M-258.494,459.416c-1.239,0-2.168-0.929-2.245-2.167h4.487C-256.328,458.409-257.336,459.416-258.494,459.416z M-258.494,453.689h-9.827c1.47-2.862,1.935-6.035,2.322-8.976c0.851-6.266,1.547-9.284,7.505-9.284c6.035,0,6.729,3.018,7.582,9.284c0.385,2.94,0.851,6.113,2.32,8.976H-258.494z"/></svg>
