<?xml version="1.0" encoding="UTF-8" standalone="no"?><svg xmlns="http://www.w3.org/2000/svg" viewBox="0 0 611.975 580" enable-background="new 0 0 612 792"><path d="M69.475 407.3c45.3 45.3 104.5 70.1 168.9 70.1 56.1 0 109-19.1 151.7-54.2l173.4 156.8s38.9-10.2 48.5-53.5l-174-157.4c61.2-93.1 50.4-218-30.6-299-45.3-45.3-104.5-70.1-168.3-70.1-63.8 0-123.7 24.9-168.9 69.5-93.8 93.6-93.1 244.7-.7 337.8zm39.5-285c1.9-2.6 4.5-5.1 7-7 33.2-32.5 76.5-51 123-51s89.9 18.5 123 51c67.6 67.6 68.2 177.9-.6 246.1-33.1 33.1-76.5 51-123 51s-89.9-18.5-123-51c-65-65-68.2-170.2-6.4-239.1z" fill="#555"/></svg>