<?xml version="1.0" encoding="UTF-8" standalone="no"?>
<svg xmlns="http://www.w3.org/2000/svg" viewBox="0 0 16 16" enable-background="new 0 0 960 560">
    <path enable-background="new" d="M2.112 0C.117 0 0 1.932 0 1.994V16h13.888C15.883 16 16 14.068 16 14.006V0H2.112zm.426 4.89s.726.726 2.295.726l2.233-.726c0 1.026-1.027 1.81-2.295 1.81S2.54 5.918 2.54 4.89zm8.935 6.517c-.543.3-1.148.542-1.81.726-.544.12-1.15.18-1.754.18-.727 0-1.39-.122-2.054-.3-.605-.18-1.206-.422-1.69-.727-.3-.18-.42-.605-.18-.905.18-.3.606-.42.907-.178.363.242.847.42 1.327.542 1.027.3 2.174.3 3.2.058.544-.12 1.028-.3 1.45-.542.3-.18.725-.058.905.242.125.305.004.726-.3.905zM11.415 6.7c-1.27 0-2.295-.846-2.295-1.81 0 0 .726.726 2.295.726l2.233-.726c.063 1.026-.964 1.81-2.233 1.81z" fill="#e7beba"/>
</svg>
