<?xml version="1.0" encoding="UTF-8" standalone="no"?><svg xmlns="http://www.w3.org/2000/svg" viewBox="0 0 32 32" enable-background="new 0 0 40 40"><g fill="#575757"><path d="M22.496 11.403c-.057-1.1-.571-2.167-1.328-3.01-.776-.865-1.841-1.529-2.989-1.717l-14.826 13.3.01.006-.008-.004-1.188 5.346 5.481-.604.001.003.004-.003.006-.001-.002-.003c2.963-2.657 11.472-10.293 14.839-13.313zm-16.439 10.125c-.422-.423-.779-.683-1.271-1.02l13.316-12.04c.45.139 1.073.502 1.264 1.022l-13.309 12.038zM21.61 17.581v1.316h-1.435v8.089h1.435v1.316h-3.104v-10.72h3.104zM26.729 28.301v-1.316h1.435v-8.089h-1.435v-1.316h3.104v10.72h-3.104z"/></g></svg>