<?xml version="1.0" encoding="UTF-8" standalone="no"?>
<svg
   xmlns:dc="http://purl.org/dc/elements/1.1/"
   xmlns:cc="http://creativecommons.org/ns#"
   xmlns:rdf="http://www.w3.org/1999/02/22-rdf-syntax-ns#"
   xmlns:svg="http://www.w3.org/2000/svg"
   xmlns="http://www.w3.org/2000/svg"
   xmlns:sodipodi="http://sodipodi.sourceforge.net/DTD/sodipodi-0.dtd"
   xmlns:inkscape="http://www.inkscape.org/namespaces/inkscape"
   width="24"
   height="15.571919"
   viewBox="2.5 791.5 24 15.571919"
   enable-background="new 2.5 791.5 606.667 606.667"
   id="svg2"
   version="1.1"
   inkscape:version="0.48.5 r10040"
   sodipodi:docname="editToggle.svg">
  <metadata
     id="metadata12">
    <rdf:RDF>
      <cc:Work
         rdf:about="">
        <dc:format>image/svg+xml</dc:format>
        <dc:type
           rdf:resource="http://purl.org/dc/dcmitype/StillImage" />
      </cc:Work>
    </rdf:RDF>
  </metadata>
  <defs
     id="defs10" />
  <sodipodi:namedview
     pagecolor="#ffffff"
     bordercolor="#666666"
     borderopacity="1"
     objecttolerance="10"
     gridtolerance="10"
     guidetolerance="10"
     inkscape:pageopacity="0"
     inkscape:pageshadow="2"
     inkscape:window-width="1280"
     inkscape:window-height="751"
     id="namedview8"
     showgrid="false"
     inkscape:zoom="12.348235"
     inkscape:cx="11.892736"
     inkscape:cy="4.9315231"
     inkscape:window-x="0"
     inkscape:window-y="0"
     inkscape:window-maximized="1"
     inkscape:current-layer="svg2"
     fit-margin-top="0"
     fit-margin-left="0"
     fit-margin-right="0"
     fit-margin-bottom="0" />
  <path
     d="m 18.071889,800.71332 v -2.85478 l -1.751816,-0.292 c -0.129831,-0.47038 -0.324422,-0.92456 -0.551545,-1.33006 l 1.021928,-1.44365 -2.011362,-2.02761 -1.443686,1.02193 c -0.421675,-0.22712 -0.85968,-0.42175 -1.330064,-0.55155 L 11.713345,791.5 H 8.8585505 l -0.292006,1.75185 c -0.470383,0.12975 -0.924557,0.32442 -1.330064,0.55151 l -1.443641,-1.02189 -2.027614,2.01136 1.021927,1.44365 c -0.227123,0.42172 -0.421752,0.85968 -0.551544,1.34631 L 2.5,797.85858 v 2.85481 l 1.7356085,0.29197 c 0.129753,0.4704 0.324421,0.92458 0.551544,1.34632 l -1.021927,1.44365 2.011361,2.01138 1.443648,-1.02191 c 0.421753,0.22709 0.859681,0.42174 1.34631,0.5515 l 0.292006,1.73562 h 2.8547945 l 0.291999,-1.75184 c 0.470383,-0.12983 0.924558,-0.32441 1.330064,-0.5515 l 1.443686,1.0219 2.011362,-2.01137 -1.021928,-1.44365 c 0.227123,-0.42167 0.421714,-0.8597 0.551545,-1.34632 l 1.751816,-0.27582 z m -7.785945,1.55719 c -1.6545235,0 -2.9845865,-1.34625 -2.9845865,-2.98457 0,-1.65452 1.346278,-2.98459 2.9845865,-2.98459 1.638316,0 2.984587,1.33007 2.984587,2.98459 0,1.65454 -1.330024,2.98457 -2.984587,2.98457 z"
     id="path4"
     inkscape:connector-curvature="0"
     style="fill:#555555" />
  <path
     d="M 23.980579,801.5446 26.5,797.24471 h -5.039556 z"
     id="path6"
     inkscape:connector-curvature="0"
     style="fill:#414141;fill-rule:evenodd" />
</svg>
