<?xml version="1.0" encoding="utf-8"?>
<!-- Generator: Adobe Illustrator 18.0.0, SVG Export Plug-In . SVG Version: 6.00 Build 0)  -->
<!DOCTYPE svg PUBLIC "-//W3C//DTD SVG 1.1//EN" "http://www.w3.org/Graphics/SVG/1.1/DTD/svg11.dtd">
<svg version="1.1" id="Layer_1" xmlns="http://www.w3.org/2000/svg" xmlns:xlink="http://www.w3.org/1999/xlink" x="0px" y="0px"
	 viewBox="0 0 158.8 143.3" enable-background="new 0 0 158.8 143.3" xml:space="preserve">
<g>
	<path fill="#F27072" d="M79.5,140.1l-7-5.4C40.4,109.8,21.1,94.9,9.9,75C4,64.6-1.9,48.7,3.4,32.2C7,21.2,15,12.3,26,7.2
		c5.6-2.6,11.8-4,18.2-4c8.3,0,16.5,2.2,23.6,6.4c4.6,2.7,8.5,6.1,11.6,9.9c3.2-3.9,7.1-7.3,11.6-9.9c7.2-4.2,15.3-6.4,23.6-6.4
		c6.4,0,12.6,1.3,18.2,3.9c11,5.1,19,14,22.5,25c2.9,9.1,4.2,23.9-6.5,42.8c-11.2,19.9-30.7,35-63,60L79.5,140.1z"/>
</g>
</svg>
