<?xml version="1.0" encoding="UTF-8" standalone="no"?>
<!-- Created with Inkscape (http://www.inkscape.org/) -->

<svg
   xmlns:dc="http://purl.org/dc/elements/1.1/"
   xmlns:cc="http://creativecommons.org/ns#"
   xmlns:rdf="http://www.w3.org/1999/02/22-rdf-syntax-ns#"
   xmlns:svg="http://www.w3.org/2000/svg"
   xmlns="http://www.w3.org/2000/svg"
   xmlns:sodipodi="http://sodipodi.sourceforge.net/DTD/sodipodi-0.dtd"
   xmlns:inkscape="http://www.inkscape.org/namespaces/inkscape"
   id="svg2"
   sodipodi:version="0.32"
   inkscape:version="0.48.5 r10040"
   width="200.00014"
   height="129.04463"
   version="1.0"
   sodipodi:docname="w.svg">
  <metadata
     id="metadata7">
    <rdf:RDF>
      <cc:Work
         rdf:about="">
        <dc:format>image/svg+xml</dc:format>
        <dc:type
           rdf:resource="http://purl.org/dc/dcmitype/StillImage" />
      </cc:Work>
    </rdf:RDF>
  </metadata>
  <defs
     id="defs5" />
  <sodipodi:namedview
     inkscape:window-height="755"
     inkscape:window-width="1280"
     inkscape:pageshadow="2"
     inkscape:pageopacity="0.0"
     guidetolerance="10.0"
     gridtolerance="10.0"
     objecttolerance="10.0"
     borderopacity="1.0"
     bordercolor="#666666"
     pagecolor="#ffffff"
     id="base"
     inkscape:zoom="1.7590531"
     inkscape:cx="3.4156584"
     inkscape:cy="64.818611"
     inkscape:window-x="0"
     inkscape:window-y="0"
     inkscape:current-layer="svg2"
     showgrid="false"
     fit-margin-top="0"
     fit-margin-left="0"
     fit-margin-right="0"
     fit-margin-bottom="0"
     inkscape:window-maximized="0" />
  <path
     style="fill:#000000;fill-opacity:1;stroke:none"
     d="M 129.70469,129.0211 104.09136,68.6953 C 93.9431,88.6064 82.69943,109.2982 73.077,128.9896 c -0.0533,0.102 -4.65025,0.042 -4.65231,-0.018 C 53.71892,94.655 38.47325,60.5645 23.69696,26.2744 20.26988,17.8921 8.27098,4.4077 0.0617,4.4843 0.0587,3.5103 0.0133,1.3402 0,0.024 L 50.62337,0 50.58897,4.4016 c -5.94552,0.2771 -16.21759,4.0695 -13.55859,10.633 7.13819,15.4043 32.4014,75.0894 39.2293,90.241 C 81.02603,95.9506 94.33073,71.0917 99.80657,60.581 95.51277,51.7697 81.32034,18.8667 77.06537,10.5784 73.85639,5.1771 65.804,4.5151 59.60076,4.4225 c 0.002,-1.3878 0.0773,-2.4497 0.0448,-4.3461 l 44.5067,0.1371 0,4.0413 c -6.02717,0.1673 -11.73023,2.409 -9.14915,8.1676 5.98706,12.4277 9.47957,21.2727 14.98432,32.7656 1.75828,-3.3656 10.74693,-21.8199 15.03711,-31.5641 2.59367,-6.4723 -1.27793,-8.9018 -12.12183,-9.1933 0.14351,-1.0649 0.0489,-3.2037 0.13999,-4.2228 13.83875,-0.052 34.73477,-0.1005 38.43498,-0.1563 l 0.0204,4.2057 c -7.06409,0.2741 -14.37083,4.0383 -18.18848,9.8784 l -18.5081,38.3846 c 2.03259,5.083 19.82448,44.6098 21.7,48.9936 l 38.26612,-88.3123 c -2.72155,-7.1522 -11.40741,-8.749 -14.80314,-8.8296 0.0244,-1.1371 0.0263,-2.8746 0.0359,-4.322 l 39.94555,0.3039 0.0542,0.2018 -0.0683,3.7979 c -8.76346,0.2641 -14.18456,4.9497 -17.42353,12.632 -7.96001,17.981 -32.29449,74.9322 -48.5363,112.0486 -0.0213,0.02 -4.2578,-0.01 -4.26718,-0.013 z"
     id="path1873"
     sodipodi:nodetypes="cccccccccccccccccccccccccccccccccccc"
     inkscape:connector-curvature="0" />
</svg>
