<?xml version="1.0" encoding="UTF-8" standalone="no"?>
<svg width="88" height="118" viewBox="0 0 88 118" xmlns="http://www.w3.org/2000/svg">
    <title>
        userpage
    </title>
    <g id="Page-1" fill="none" fill-rule="evenodd">
        <g id="youdonthaveuserpage" fill="#000">
            <g id="userpage">
                <path d="M86.156 18.4L69.682 2.166c-.762-.75-1.615-1.612-3.31-1.612H5.608C2.61.554.174 3.03.174 6.07v106.275c0 3.022 2.436 5.485 5.434 5.485h76.73c3.006 0 5.453-2.463 5.453-5.485V21.95c-.01-1.715-.83-2.758-1.633-3.55zM83.9 20.43H67.886V4.65L83.9 20.43zm-1.56 94.38H5.607c-1.32 0-2.398-1.107-2.398-2.465V6.08c0-1.347 1.097-2.484 2.397-2.484h59.24V21.95a1.51 1.51 0 0 0 1.514 1.512h18.383v88.883c0 1.358-1.077 2.464-2.405 2.464z" id="Fill-1"/>
                <path d="M64.76 94.702H20.523a1.51 1.51 0 0 0 0 3.02h44.24a1.51 1.51 0 0 0 1.515-1.51c0-.84-.67-1.51-1.516-1.51z" id="Fill-2"/>
                <path d="M64.956 70.245c-12.534-5.314-14.635-7.543-14.99-8.153V60.46c1.4-1.725 2.497-3.955 3.207-6.498 1.88-1.797 2.257-4.857.874-7.15v-5.12c0-7.118-4.04-11.204-11.1-11.204-6.947 0-11.102 4.187-11.102 11.204v5.12c-1.37 2.293-.993 5.343.884 7.14.71 2.543 1.81 4.775 3.21 6.5v1.64c-.388.69-2.62 2.88-15.013 8.153-1.168.506-1.93 1.703-1.93 3.042v6.225c0 1.817 1.392 3.286 3.097 3.286H63.79c1.715 0 3.106-1.48 3.106-3.286v-6.225c.02-1.34-.752-2.536-1.94-3.042zm-1.076 9.277a.375.375 0 0 1-.09.265l-41.632.01c-.032-.01-.102-.112-.102-.275v-6.225c0-.153.07-.254.09-.264 13.875-5.9 16.262-8.405 16.79-10.23.04-.133.06-.275.06-.416v-2.484c0-.366-.13-.732-.386-1.004-1.352-1.523-2.407-3.65-3.047-6.157a1.507 1.507 0 0 0-.538-.823c-1.076-.83-1.28-2.584-.416-3.75.19-.262.292-.578.292-.903v-5.575c0-3.73 1.4-8.172 8.065-8.172 5.35 0 8.063 2.746 8.063 8.172v5.575c0 .325.102.64.297.904.954 1.29.546 3.013-.408 3.75a1.52 1.52 0 0 0-.54.825c-.64 2.505-1.696 4.634-3.048 6.155-.24.27-.384.637-.384 1.003v2.484c0 .14.02.273.058.405.5 1.755 2.876 4.34 16.78 10.23.02.01.102.1.102.265v6.235h-.01z" id="Fill-3"/>
            </g>
        </g>
    </g>
</svg>
