<?xml version="1.0" encoding="utf-8"?>
<!-- Generator: Adobe Illustrator 17.1.0, SVG Export Plug-In . SVG Version: 6.00 Build 0)  -->
<!DOCTYPE svg PUBLIC "-//W3C//DTD SVG 1.1//EN" "http://www.w3.org/Graphics/SVG/1.1/DTD/svg11.dtd">
<svg version="1.1" id="Layer_1" xmlns="http://www.w3.org/2000/svg" xmlns:xlink="http://www.w3.org/1999/xlink" x="0px" y="0px"
	 viewBox="0 0 24 24" enable-background="new 0 0 24 24" xml:space="preserve">
<path fill="#777777" d="M5.9,15.2c1.2,1.2,2.7,1.8,4.4,1.8c1.5,0,2.9-0.5,4-1.4l4.3,3.9c0,0,1-0.3,1.3-1.4l-4.3-3.9
	c1.6-2.4,1.3-5.7-0.8-7.8c-1.2-1.2-2.7-1.8-4.4-1.8C8.7,4.5,7.1,5.2,6,6.4C3.5,8.8,3.5,12.8,5.9,15.2z M7,7.7C7,7.7,7.1,7.6,7.2,7.6
	c0.9-0.9,2-1.3,3.2-1.3c1.2,0,2.4,0.5,3.2,1.3c1.8,1.8,1.8,4.7,0,6.4c-0.9,0.9-2,1.3-3.2,1.3c-1.2,0-2.4-0.5-3.2-1.3
	C5.4,12.3,5.4,9.5,7,7.7z"/>
</svg>
