<?xml version="1.0" encoding="UTF-8" standalone="no"?>
<!-- Created with Inkscape -->

<svg
   xmlns:dc="http://purl.org/dc/elements/1.1/"
   xmlns:cc="http://creativecommons.org/ns#"
   xmlns:rdf="http://www.w3.org/1999/02/22-rdf-syntax-ns#"
   xmlns:svg="http://www.w3.org/2000/svg"
   xmlns="http://www.w3.org/2000/svg"
   version="1.1"
   width="48"
   height="48"
   viewBox="0 0 48 48"
   id="Layer_1"
   xml:space="preserve"><metadata
   id="metadata15"><rdf:RDF><cc:Work
       rdf:about=""><dc:format>image/svg+xml</dc:format><dc:type
         rdf:resource="http://purl.org/dc/dcmitype/StillImage" /><dc:title></dc:title></cc:Work></rdf:RDF></metadata><defs
   id="defs13">



</defs>
<path
   d="M 45.999995,5.4323635 V 12.565079 C 45.999995,12.806844 45.851891,13 45.671796,13 H 2.3281943 C 2.1528389,13 1.9999952,12.803006 1.9999952,12.565079 V 5.4323635 C 1.9999952,5.1982731 2.1528389,5 2.3281943,5 H 45.671796 c 0.180095,0 0.328199,0.1982731 0.328199,0.4323635 z"
   id="path9"
   style="fill:#565656" />
<path
   d="m 45.999995,35.432363 v 7.132716 C 45.999995,42.806844 45.851891,43 45.671796,43 H 2.3281943 C 2.1528389,43 1.9999952,42.803006 1.9999952,42.565079 V 35.432363 C 1.9999952,35.198273 2.1528389,35 2.3281943,35 H 45.671796 c 0.180095,0 0.328199,0.198273 0.328199,0.432363 z"
   id="path9-0"
   style="fill:#565656" /><path
   d="m 46,20.432363 v 7.132716 C 46,27.806844 45.851895,28 45.671801,28 H 2.3281995 C 2.1528434,28 2,27.803006 2,27.565079 V 20.432363 C 2,20.198273 2.1528434,20 2.3281995,20 H 45.671801 C 45.851895,20 46,20.198273 46,20.432363 z"
   id="path9-0-8"
   style="fill:#565656" /></svg>