<?xml version="1.0" encoding="UTF-8" standalone="no"?><svg xmlns="http://www.w3.org/2000/svg" width="48" height="48" viewBox="0 0 48 48"><path d="M46 5.432v7.133c0 .242-.148.435-.328.435h-43.344c-.175 0-.328-.197-.328-.435v-7.133c0-.234.153-.432.328-.432h43.344c.18 0 .328.198.328.432zm0 30v7.133c0 .242-.148.435-.328.435h-43.344c-.175 0-.328-.197-.328-.435v-7.133c0-.234.153-.432.328-.432h43.344c.18 0 .328.198.328.432zm0-15v7.133c0 .242-.148.435-.328.435h-43.344c-.175 0-.328-.197-.328-.435v-7.133c0-.234.153-.432.328-.432h43.344c.18 0 .328.198.328.432z" fill="#565656"/></svg>