<svg xmlns="http://www.w3.org/2000/svg" viewBox="0 0 48 48" width="48" height="48"><path d="M44 27.634v-7.26l-4.498-.752c-.247-1-.752-2-1.496-3.497l2.754-3.754-5.25-5.25-3.754 2.753c-1.249-.752-2.497-1.248-3.497-1.496l-.496-4.498h-7.251l-.753 4.498c-1.248.248-2.249.753-3.497 1.496l-3.754-2.753-5.25 5.25 2.488 3.754c-.753 1.248-1 2.249-1.496 3.497L4 20.118v7.25l4.498.753c.247 1.249.752 2.25 1.496 3.497l-2.497 3.754 5.25 5.25 3.754-2.496c1 .496 2.249 1 3.497 1.496l.753 4.498h7.499l.752-4.498c1.249-.248 2.249-.753 3.497-1.496l3.754 2.753 5.25-5.25-2.753-3.745c.752-1.248 1.248-2.497 1.496-3.497L44 27.634zM24 31.38c-4.25 0-7.499-3.249-7.499-7.499s3.25-7.498 7.499-7.498c4.25 0 7.499 3.249 7.499 7.498 0 4.25-3.25 7.5-7.499 7.5z"/></svg>