<?xml version="1.0" encoding="UTF-8"?><svg viewBox="0 0 24 24" xmlns="http://www.w3.org/2000/svg"><g id="Page-1" fill="none" fill-rule="evenodd"><g id="icon-export" fill-rule="nonzero" fill="#9AA0A7"><path d="M10.551 2.061c2.286 0 4.429.878 6.04 2.49 3 3 3.368 7.653.878 11.082l-.142.204 4.285 4.285c.204.205.327.49.327.776A1.115 1.115 0 0 1 20.837 22c-.286 0-.572-.122-.776-.327l-4.245-4.244-.04-.041-.205.143a8.53 8.53 0 0 1-5.02 1.632 8.491 8.491 0 0 1-6.04-2.51A8.491 8.491 0 0 1 2 10.613a8.46 8.46 0 0 1 2.51-6.042 8.491 8.491 0 0 1 6.041-2.51zm5.082 13.612c2.796-2.795 2.796-7.346 0-10.142-1.368-1.347-3.164-2.102-5.082-2.102A7.117 7.117 0 0 0 5.49 5.53a7.236 7.236 0 0 0-2.102 5.081 7.13 7.13 0 0 0 2.081 5.061c1.368 1.347 3.164 2.103 5.082 2.103a7.164 7.164 0 0 0 5.082-2.103zm-.98-5.49c.265 0 .49.205.49.49 0 .266-.225.49-.49.49H6.776a.497.497 0 0 1-.49-.49c0-.265.224-.49.49-.49h7.877zm-7.837-1.49a.497.497 0 0 1-.49-.489c0-.265.225-.49.49-.49h7.878c.265 0 .49.225.49.49s-.225.49-.49.49H6.816zm4.613 3.94c.265 0 .49.224.49.49 0 .265-.225.49-.49.49H6.816a.497.497 0 0 1-.49-.49c0-.266.225-.49.49-.49h4.613z" id="find-in-page"/></g></g></svg>