<?xml version="1.0" encoding="utf-8"?>
<svg id="Layer_1" xmlns="http://www.w3.org/2000/svg" viewBox="0 0 640 1136">
    <path d="M435.7 366.3h-344v344c0 48.7 37.3 86 86 86h344v-344c0-48.7-37.3-86-86-86zM169.1 521.1C154.7 509.7 149 498.2 149 481c17.2 17.2 43 25.8 71.7 25.8s54.5-8.6 71.7-25.8c0 17.2-5.7 28.7-20.1 40.1-14.3 11.5-31.5 17.2-51.6 17.2s-37.3-5.7-51.6-17.2zm240.8 123.3c0 5.7-2.9 8.6-8.6 11.5-28.7 17.2-63.1 25.8-100.3 25.8-34.4 0-65.9-8.6-94.6-28.7-5.7-2.9-5.7-5.7-8.6-11.5-2.9-5.7 0-8.6 2.9-14.3 2.9-5.7 5.7-5.7 11.5-8.6 5.7-2.9 8.6 0 14.3 2.9 22.9 14.3 48.7 22.9 80.3 22.9s57.3-5.7 80.3-20.1c2.9-2.9 8.6-2.9 14.3-2.9s8.6 2.9 11.5 8.6c-3 5.8-.2 11.5-3 14.4zm34.4-123.3c-14.3 11.5-31.5 17.2-51.6 17.2s-37.3-5.7-51.6-17.2C326.7 509.7 321 498.2 321 481c17.2 17.2 43 25.8 71.7 25.8s54.5-8.6 71.7-25.8c-.1 17.2-5.8 28.7-20.1 40.1z"/>
</svg>
