<svg xmlns="http://www.w3.org/2000/svg" viewBox="0 0 48 48" width="48" height="48"><path d="M36 4H4v32c0 4.53 3.47 8 8 8h32V12c0-4.53-3.47-8-8-8zm-5.34 10.67c1.87 0 3.2 1.6 3.2 3.2s-1.6 3.2-3.2 3.2-3.2-1.6-3.2-3.2 1.34-3.2 3.2-3.2zm-13.33 0c1.87 0 3.2 1.6 3.2 3.2s-1.33 3.47-3.2 3.47-3.2-1.6-3.2-3.2 1.33-3.47 3.2-3.47zM36 29.07c0 .53-.27.8-.8 1.33-1.87 1.6-4.27 2.67-6.93 3.47-2.67.8-5.6.53-8.27 0s-5.33-2.4-7.2-4c-.27-.27-.53-.8-.53-1.07s.27-.8.53-1.07c.27-.27.8-.53 1.07-.53.53 0 .8.27 1.07.53 1.33 1.33 3.2 2.4 5.6 2.93 2.4.53 4.53.53 6.93 0 2.4-.53 4.27-1.33 5.6-2.67.27-.27.8-.53 1.07-.53s.8.27 1.33.53c.53.28.53.55.53 1.08z"/></svg>