<?xml version="1.0" encoding="utf-8"?>
<svg id="Layer_1" xmlns="http://www.w3.org/2000/svg" viewBox="0 0 640 1136">
    <path d="M435.7 366.3h-344v344c0 48.7 37.3 86 86 86h344v-344c0-48.7-37.3-86-86-86zM378.3 481c20.1 0 34.4 17.2 34.4 34.4s-17.2 34.4-34.4 34.4-34.4-17.2-34.4-34.4 14.4-34.4 34.4-34.4zM235 481c20.1 0 34.4 17.2 34.4 34.4s-14.3 37.3-34.4 37.3-34.4-17.2-34.4-34.4S214.9 481 235 481zm200.7 154.8c0 5.7-2.9 8.6-8.6 14.3-20.1 17.2-45.9 28.7-74.5 37.3-28.7 8.6-60.2 5.7-88.9 0s-57.3-25.8-77.4-43c-2.9-2.9-5.7-8.6-5.7-11.5 0-2.9 2.9-8.6 5.7-11.5 2.9-2.9 8.6-5.7 11.5-5.7 5.7 0 8.6 2.9 11.5 5.7 14.3 14.3 34.4 25.8 60.2 31.5 25.8 5.7 48.7 5.7 74.5 0s45.9-14.3 60.2-28.7c2.9-2.9 8.6-5.7 11.5-5.7 2.9 0 8.6 2.9 14.3 5.7 5.7 3 5.7 5.9 5.7 11.6z"/>
</svg>
