<?xml version="1.0" encoding="utf-8"?>
<svg id="Layer_1" xmlns="http://www.w3.org/2000/svg" viewBox="0 0 640 1136">
    <path d="M436.9 351.3H89.7v347.2c0 46.3 37.7 86.8 86.8 86.8h347.2V438.1c0-49.1-40.6-86.8-86.8-86.8zm-246 347.2c-23.2 0-43.4-20.2-43.4-43.4s20.2-43.4 43.4-43.4 43.4 20.2 43.4 43.4-20.2 43.4-43.4 43.4zm0-173.6c-23.2 0-43.4-20.2-43.4-43.4s20.2-43.4 43.4-43.4 43.4 20.2 43.4 43.4-20.2 43.4-43.4 43.4zm115.8 86.8c-23.2 0-43.4-20.2-43.4-43.4s20.2-43.4 43.4-43.4 43.4 20.2 43.4 43.4-20.2 43.4-43.4 43.4zm115.7 86.8c-23.2 0-43.4-20.2-43.4-43.4s20.2-43.4 43.4-43.4 43.4 20.2 43.4 43.4-20.2 43.4-43.4 43.4zm0-173.6c-23.2 0-43.4-20.2-43.4-43.4s20.2-43.4 43.4-43.4 43.4 20.2 43.4 43.4-20.2 43.4-43.4 43.4z"/>
</svg>
