<svg xmlns="http://www.w3.org/2000/svg" viewBox="0 0 48 48" width="48" height="48"><path d="M36 4H4v32c0 4.267 3.475 8 8 8h32V12c0-4.525-3.742-8-8-8zM13.327 36c-2.138 0-4-1.862-4-4s1.862-4 4-4 4 1.862 4 4-1.862 4-4 4zm0-16c-2.138 0-4-1.862-4-4s1.862-4 4-4 4 1.862 4 4-1.862 4-4 4zM24 28c-2.138 0-4-1.862-4-4s1.862-4 4-4 4 1.862 4 4-1.862 4-4 4zm10.664 8c-2.139 0-4-1.862-4-4s1.861-4 4-4c2.138 0 4 1.862 4 4s-1.862 4-4 4zm0-16c-2.139 0-4-1.862-4-4s1.861-4 4-4c2.138 0 4 1.862 4 4s-1.862 4-4 4z"/></svg>