<?xml version="1.0" encoding="utf-8"?>
<svg id="Layer_1" xmlns="http://www.w3.org/2000/svg" viewBox="0 0 640 1136">
    <path d="M545.9 637v-82l-50.8-8.5c-2.8-11.3-8.5-22.6-16.9-39.5l31.1-42.4-59.3-59.3-42.4 31.1c-14.1-8.5-28.2-14.1-39.5-16.9l-5.6-50.8h-81.9l-8.5 50.8c-14.1 2.8-25.4 8.5-39.5 16.9l-42.4-31.1-59.3 59.3L159 507c-8.5 14.1-11.3 25.4-16.9 39.5l-48 5.6V634l50.8 8.5c2.8 14.1 8.5 25.4 16.9 39.5l-28.2 42.4 59.3 59.3 42.4-28.2c11.3 5.6 25.4 11.3 39.5 16.9l8.5 50.8H368l8.5-50.8c14.1-2.8 25.4-8.5 39.5-16.9l42.4 31.1 59.3-59.3-31.1-42.3c8.5-14.1 14.1-28.2 16.9-39.5l42.4-8.5zM320 679.3c-48 0-84.7-36.7-84.7-84.7s36.7-84.7 84.7-84.7 84.7 36.7 84.7 84.7-36.7 84.7-84.7 84.7z"/>
</svg>
