<?xml version="1.0" encoding="UTF-8"?>
<!-- Generator: Adobe Illustrator 17.1.0, SVG Export Plug-In . SVG Version: 6.00 Build 0)  -->
<!DOCTYPE svg PUBLIC "-//W3C//DTD SVG 1.1//EN" "http://www.w3.org/Graphics/SVG/1.1/DTD/svg11.dtd">
<svg version="1.1" id="Layer_1" xmlns="http://www.w3.org/2000/svg" xmlns:xlink="http://www.w3.org/1999/xlink" x="0px" y="0px" viewBox="0 0 24 24" enable-background="new 0 0 24 24" xml:space="preserve">
<g>
	<path fill="#575757" d="M6.6,12l10,10l0,0c0.9-0.9,0.9-2.2,0-3.1L9.8,12l6.7-6.8c0.9-0.9,0.9-2.2,0-3.1L6.6,12z"/>
	<path fill="#575757" d="M16.6,23l-11-11L16.5,1L17,1.5c0.6,0.6,0.9,1.3,0.9,2.1c0,0.8-0.3,1.5-0.9,2.1L10.8,12l6.3,6.3   c0.6,0.6,0.9,1.3,0.9,2.1c0,0.8-0.3,1.5-0.9,2.1L16.6,23z M7.6,12l8.8,8.8c0-0.1,0.1-0.3,0.1-0.4c0-0.4-0.2-0.8-0.5-1.1L8.8,12   L16,4.7c0.3-0.3,0.5-0.7,0.5-1.1c0-0.1,0-0.3-0.1-0.4L7.6,12z"/>
</g>
</svg>