<?xml version="1.0" encoding="utf-8"?>
<!-- Generator: Adobe Illustrator 17.0.2, SVG Export Plug-In . SVG Version: 6.00 Build 0)  -->
<!DOCTYPE svg PUBLIC "-//W3C//DTD SVG 1.1//EN" "http://www.w3.org/Graphics/SVG/1.1/DTD/svg11.dtd">
<svg version="1.1" id="Layer_1" xmlns="http://www.w3.org/2000/svg" xmlns:xlink="http://www.w3.org/1999/xlink" x="0px" y="0px"
	 width="40px" height="40px" viewBox="0 0 40 40" enable-background="new 0 0 40 40" xml:space="preserve">
<path fill="#787878" d="M33.117,6.516c-3.263-3-7.613-4.835-12.385-4.835C10.632,1.681,2.414,9.899,2.414,20
	s8.218,18.319,18.319,18.319c5.042,0,9.615-2.048,12.93-5.356l-3.625-3.625c-2.387,2.378-5.677,3.852-9.305,3.852
	C13.46,33.189,7.543,27.273,7.543,20S13.46,6.811,20.733,6.811c3.357,0,6.424,1.263,8.754,3.336l-4.358,4.358h7.589h4.868v-1.68
	V2.048L33.117,6.516z"/>
</svg>

