<?xml version="1.0" encoding="UTF-8" standalone="no"?>
<svg
   xmlns:dc="http://purl.org/dc/elements/1.1/"
   xmlns:cc="http://creativecommons.org/ns#"
   xmlns:rdf="http://www.w3.org/1999/02/22-rdf-syntax-ns#"
   xmlns:svg="http://www.w3.org/2000/svg"
   xmlns="http://www.w3.org/2000/svg"
   xmlns:sodipodi="http://sodipodi.sourceforge.net/DTD/sodipodi-0.dtd"
   xmlns:inkscape="http://www.inkscape.org/namespaces/inkscape"
   width="24"
   height="23.975834"
   id="svg2"
   version="1.1"
   inkscape:version="0.48.5 r10040"
   sodipodi:docname="cancel-light.svg">
  <metadata
     id="metadata12">
    <rdf:RDF>
      <cc:Work
         rdf:about="">
        <dc:format>image/svg+xml</dc:format>
        <dc:type
           rdf:resource="http://purl.org/dc/dcmitype/StillImage" />
      </cc:Work>
    </rdf:RDF>
  </metadata>
  <defs
     id="defs10" />
  <sodipodi:namedview
     pagecolor="#ffffff"
     bordercolor="#666666"
     borderopacity="1"
     objecttolerance="10"
     gridtolerance="10"
     guidetolerance="10"
     inkscape:pageopacity="0"
     inkscape:pageshadow="2"
     inkscape:window-width="1280"
     inkscape:window-height="751"
     id="namedview8"
     showgrid="false"
     fit-margin-top="0"
     fit-margin-left="0"
     fit-margin-right="0"
     fit-margin-bottom="0"
     inkscape:zoom="14.614634"
     inkscape:cx="8.9310032"
     inkscape:cy="16.323301"
     inkscape:window-x="0"
     inkscape:window-y="0"
     inkscape:window-maximized="1"
     inkscape:current-layer="svg2" />
  <path
     d="M 20.627294,5.7568232e-4 C 20.525459,0.00582568 20.414175,0.04991868 20.332287,0.13180648 L 11.90097,8.530578 3.6659744,0.29558249 C 3.5011485,0.13075658 3.2565343,0.11500888 3.108506,0.26303725 L 0.28756856,3.0850245 C 0.13954021,3.2330529 0.15633776,3.4787169 0.3201138,3.642493 l 8.2349955,8.234996 -8.42081832,8.420818 c -0.16482589,0.164826 -0.18057359,0.441986 -0.0325452,0.590014 l 2.82093732,2.788392 c 0.1480284,0.148028 0.3936925,0.131231 0.5574685,-0.03254 l 8.4208184,-8.420819 8.618189,8.61819 c 0.164826,0.164826 0.409441,0.180573 0.557469,0.03254 l 2.821987,-2.821987 c 0.148028,-0.148028 0.131231,-0.393693 -0.03254,-0.557469 l -8.61819,-8.618189 8.431317,-8.4313172 c 0.164826,-0.1648259 0.180574,-0.4094401 0.03255,-0.5574684 L 20.889755,0.09926118 c -0.07349,-0.073489 -0.160626,-0.1039348 -0.262461,-0.0986849977 z"
     id="path4"
     inkscape:connector-curvature="0"
     style="fill-opacity:0.53299997" />
  <path
     d="m 20.627294,0.68927491 c -0.08084,0 -0.167976,0.0367446 -0.229917,0.0986856 L 11.89992,9.2854176 3.5998341,0.98533161 c -0.1238819,-0.12388188 -0.3359509,-0.12388188 -0.4598327,0 L 1.3689104,2.7574724 c -0.1238819,0.1238819 -0.1238819,0.3359509 0,0.4587829 l 8.300086,8.3000867 -8.4974571,8.497457 c -0.1238819,0.123882 -0.1238819,0.335951 0,0.458783 l 1.804686,1.77214 c 0.1238819,0.123882 0.3034056,0.123882 0.4262377,0 l 8.497457,-8.497457 8.693779,8.693779 c 0.123881,0.123882 0.33595,0.123882 0.459832,0 l 1.772141,-1.804686 c 0.123882,-0.123882 0.123882,-0.303406 0,-0.426238 l -8.693778,-8.693778 8.497457,-8.4974578 c 0.123882,-0.1238819 0.123882,-0.3359509 0,-0.4587829 L 20.85721,0.78796047 c -0.06194,-0.0619409 -0.149078,-0.0986856 -0.229916,-0.0986856 z"
     id="path6"
     inkscape:connector-curvature="0"
     style="fill:#ffffff" />
</svg>
