<?xml version="1.0" encoding="UTF-8" standalone="no"?><svg xmlns="http://www.w3.org/2000/svg" width="22.861" height="22.837"><path d="M19.649.001c-.097.005-.203.047-.281.125l-8.031 8-7.844-7.844c-.157-.157-.39-.172-.531-.031l-2.687 2.688c-.141.141-.125.375.031.531l7.844 7.844-8.021 8.021c-.157.157-.172.421-.031.562l2.687 2.656c.141.141.375.125.531-.031l8.021-8.021 8.209 8.209c.157.157.39.172.531.031l2.688-2.688c.141-.141.125-.375-.031-.531l-8.209-8.209 8.031-8.031c.157-.157.172-.39.031-.531l-2.688-2.656c-.07-.07-.153-.099-.25-.094z" fill-opacity=".533"/><path d="M19.649.657c-.077 0-.16.035-.219.094l-8.094 8.094-7.906-7.906c-.118-.118-.32-.118-.438 0l-1.687 1.688c-.118.118-.118.32 0 .437l7.906 7.906-8.094 8.094c-.118.118-.118.32 0 .437l1.719 1.688c.118.118.289.118.406 0l8.094-8.094 8.281 8.281c.118.118.32.118.438 0l1.688-1.719c.118-.118.118-.289 0-.406l-8.281-8.281 8.094-8.094c.118-.118.118-.32 0-.437l-1.688-1.688c-.059-.059-.142-.094-.219-.094z" fill="#fff"/></svg>