<?xml version="1.0" encoding="UTF-8" standalone="no"?>
<svg
   xmlns:dc="http://purl.org/dc/elements/1.1/"
   xmlns:cc="http://creativecommons.org/ns#"
   xmlns:rdf="http://www.w3.org/1999/02/22-rdf-syntax-ns#"
   xmlns:svg="http://www.w3.org/2000/svg"
   xmlns="http://www.w3.org/2000/svg"
   xmlns:sodipodi="http://sodipodi.sourceforge.net/DTD/sodipodi-0.dtd"
   xmlns:inkscape="http://www.inkscape.org/namespaces/inkscape"
   viewBox="0 0 611.975 580"
   enable-background="new 0 0 612 792"
   id="svg2"
   version="1.1"
   inkscape:version="0.91 r13725"
   sodipodi:docname="magnifying-glass.svg">
  <metadata
     id="metadata10">
    <rdf:RDF>
      <cc:Work
         rdf:about="">
        <dc:format>image/svg+xml</dc:format>
        <dc:type
           rdf:resource="http://purl.org/dc/dcmitype/StillImage" />
        <dc:title></dc:title>
      </cc:Work>
    </rdf:RDF>
  </metadata>
  <defs
     id="defs8" />
  <sodipodi:namedview
     pagecolor="#ffffff"
     bordercolor="#666666"
     borderopacity="1"
     objecttolerance="10"
     gridtolerance="10"
     guidetolerance="10"
     inkscape:pageopacity="0"
     inkscape:pageshadow="2"
     inkscape:window-width="1280"
     inkscape:window-height="751"
     id="namedview6"
     showgrid="false"
     inkscape:zoom="0.40689655"
     inkscape:cx="305.98749"
     inkscape:cy="290"
     inkscape:window-x="0"
     inkscape:window-y="0"
     inkscape:window-maximized="1"
     inkscape:current-layer="svg2" />
  <path
     d="M69.475 407.3c45.3 45.3 104.5 70.1 168.9 70.1 56.1 0 109-19.1 151.7-54.2l173.4 156.8s38.9-10.2 48.5-53.5l-174-157.4c61.2-93.1 50.4-218-30.6-299-45.3-45.3-104.5-70.1-168.3-70.1-63.8 0-123.7 24.9-168.9 69.5-93.8 93.6-93.1 244.7-.7 337.8zm39.5-285c1.9-2.6 4.5-5.1 7-7 33.2-32.5 76.5-51 123-51s89.9 18.5 123 51c67.6 67.6 68.2 177.9-.6 246.1-33.1 33.1-76.5 51-123 51s-89.9-18.5-123-51c-65-65-68.2-170.2-6.4-239.1z"
     fill="#555"
     id="path4" />
  <path
     style="fill:#ffffff"
     d="M 477.23979,500.51373 390.687,422.14546 374.26873,433.38583 C 267.45693,506.51206 126.81443,483.66569 48.337698,380.44068 33.562343,361.00579 16.599051,326.67227 9.4817416,301.79661 2.7656874,278.3234 0.26157767,226.2267 4.5666127,199.53996 16.716905,124.22075 66.576523,58.113872 136.16545,25.0583 174.31084,6.938785 191.33685,3.2969137 238.15698,3.2422551 285.03192,3.1875335 305.76013,7.4303375 340.60061,24.211176 442.05232,73.075144 495.15058,184.95285 468.84623,294.42373 c -3.86039,16.06573 -19.17738,52.64761 -30.96812,73.96172 -0.44473,0.80397 37.93394,36.51602 85.28598,79.36012 47.35201,42.84409 86.09458,79.54705 86.09458,81.56211 0,13.28026 -17.18803,35.35326 -34.18554,43.90133 l -11.28056,5.67302 -86.55278,-78.3683 z m -197.46017,-92.0606 c 62.16521,-15.17056 114.92681,-68.15096 129.21211,-129.74789 5.05784,-21.80901 4.98542,-60.8351 -0.15238,-82.06236 -2.19623,-9.07435 -8.5445,-25.89924 -14.10722,-37.38864 C 386.48933,142.22933 380.48986,134.21686 362.30509,115.947 343.237,96.789702 336.6081,91.896879 316.72285,82.302651 257.89204,53.917989 198.57129,57.389449 143.53834,92.437439 68.570789,140.18086 42.904437,234.40665 82.52654,316.42271 c 20.92968,43.32354 64.20336,78.50256 111.95721,91.01476 22.90067,6.00032 62.91746,6.47683 85.29587,1.01566 z"
     id="path3363"
     inkscape:connector-curvature="0" />
</svg>
