<?xml version="1.0" encoding="utf-8"?><svg xmlns="http://www.w3.org/2000/svg" width="80" height="80" viewBox="0 0 80 80"><path fill="#6D6E70" d="M79.33 22.175c-.218-4.245-2.205-8.366-5.128-11.624-2.997-3.337-7.111-5.904-11.546-6.631-12.989 11.657-45.877 41.16-57.245 51.358l.039.021-.035-.015-4.582 20.647 21.16-2.336.007.014.018-.018h.017l-.003-.011c11.437-10.261 44.299-39.742 57.298-51.405zm-63.483 39.098c-1.628-1.632-3.006-2.633-4.907-3.936l51.425-46.493c1.737.536 4.144 1.94 4.879 3.945l-51.397 46.484z"/></svg>