<?xml version="1.0" encoding="utf-8"?>
<!-- Generator: Adobe Illustrator 16.0.4, SVG Export Plug-In . SVG Version: 6.00 Build 0)  -->
<!DOCTYPE svg PUBLIC "-//W3C//DTD SVG 1.1//EN" "http://www.w3.org/Graphics/SVG/1.1/DTD/svg11.dtd">
<svg version="1.1" id="Layer_1" xmlns="http://www.w3.org/2000/svg" xmlns:xlink="http://www.w3.org/1999/xlink" x="0px" y="0px"
	 width="80px" height="80px" viewBox="0 0 80 80" enable-background="new 0 0 80 80" xml:space="preserve">
<path fill="#6D6E70" d="M79.33,22.175c-0.218-4.245-2.205-8.366-5.128-11.624c-2.997-3.337-7.111-5.904-11.546-6.631
	C49.667,15.577,16.779,45.08,5.411,55.278c0.014,0.004,0.024,0.014,0.039,0.021c-0.01-0.004-0.023-0.011-0.035-0.015L0.833,75.931
	l21.16-2.336c0.003,0.007,0.005,0.01,0.007,0.014c0.007-0.004,0.012-0.011,0.018-0.018h0.017c0,0-0.003-0.004-0.003-0.011
	C33.469,63.319,66.331,33.838,79.33,22.175z M15.847,61.273c-1.628-1.632-3.006-2.633-4.907-3.936l51.425-46.493
	c1.737,0.536,4.144,1.94,4.879,3.945L15.847,61.273z"/>
</svg>
