<?xml version="1.0" encoding="utf-8"?><svg xmlns="http://www.w3.org/2000/svg" width="40" height="40" viewBox="0 0 40 40"><path fill="#ABABAB" d="M6.777 7.25v19.807l-5.08 5.692h33.384c3.072 0 3.216-3.055 3.221-3.208v-22.291h-31.525zm19.843 4.87c1.012 0 1.832.819 1.832 1.833 0 1.012-.82 1.831-1.832 1.831-1.013 0-1.833-.819-1.833-1.831 0-1.014.82-1.833 1.833-1.833zm-7.588 0c1.011 0 1.831.819 1.831 1.833 0 1.012-.82 1.831-1.831 1.831-1.013 0-1.833-.819-1.833-1.831 0-1.014.82-1.833 1.833-1.833zm3.792 15.762c-5.354 0-9.693-4.34-9.693-9.695 0 0 4.854 2.095 9.901 2.095 5.159 0 9.486-2.095 9.486-2.095.001 5.355-4.339 9.695-9.694 9.695z"/></svg>