<?xml version="1.0" encoding="utf-8"?>
<svg xmlns="http://www.w3.org/2000/svg" width="40" height="40" viewBox="0 0 40 40">
    <g fill="#ABABAB">
        <path d="M2.176 37.586v-6.202c0-.17.113-.298.243-.298h35.16c.135 0 .244.133.244.298v6.202c0 .164-.11.296-.243.296H2.42c-.13 0-.244-.132-.244-.296z"/>
        <path d="M37.824 16.602v6.207c0 .165-.11.297-.243.297H2.42c-.13 0-.244-.135-.244-.298V16.6c0-.16.113-.296.243-.296h35.16c.135 0 .244.136.244.296z"/>
        <path d="M2.176 2.355c0-.132.108-.237.236-.237h21.94c.134 0 .236.105.236.237v6.677c0 .133-.103.237-.236.237H2.412c-.13 0-.236-.105-.236-.238V2.355z"/>
    </g>
</svg>
