<?xml version="1.0" encoding="utf-8"?><svg xmlns="http://www.w3.org/2000/svg" width="40" height="40" viewBox="0 0 40 40"><path fill="#a2a9b1" d="M2.176 37.586v-6.202c0-.17.113-.298.243-.298h35.16c.13 0 .24.133.24.298v6.202c0 .164-.11.296-.244.296H2.42c-.13 0-.244-.132-.244-.296zm35.648-20.984v6.207c0 .16-.11.292-.243.292H2.42c-.13 0-.244-.135-.244-.298V16.6c0-.16.113-.296.243-.296h35.16c.13 0 .24.136.24.296zM2.176 2.355c0-.132.108-.237.236-.237h21.94c.134 0 .236.105.236.237v6.677a.234.234 0 0 1-.236.237H2.412a.236.236 0 0 1-.236-.24V2.352z"/></svg>