<?xml version="1.0" encoding="utf-8"?>
<svg xmlns="http://www.w3.org/2000/svg" width="40" height="40" viewBox="0 0 40 40">
    <g fill="#ABABAB">
        <path d="M2.176 37.586v-6.202c0-.171.113-.298.243-.298h35.162c.134 0 .243.133.243.298v6.202c0 .164-.11.296-.243.296h-35.162c-.13 0-.243-.132-.243-.296z"/>
        <path d="M37.824 16.602v6.207c0 .166-.11.298-.243.298h-35.162c-.13 0-.243-.135-.243-.298v-6.207c0-.16.113-.296.243-.296h35.162c.134 0 .243.136.243.296z"/>
        <path d="M2.176 2.355c0-.132.108-.237.236-.237h21.94c.134 0 .236.105.236.237v6.677c0 .133-.103.237-.236.237h-21.94c-.13 0-.236-.104-.236-.237v-6.677z"/>
    </g>
</svg>
