<?xml version="1.0" encoding="utf-8"?>
<!DOCTYPE svg PUBLIC "-//W3C//DTD SVG 1.1//EN" "http://www.w3.org/Graphics/SVG/1.1/DTD/svg11.dtd">
<svg version="1.1" id="Layer_1" xmlns="http://www.w3.org/2000/svg" xmlns:xlink="http://www.w3.org/1999/xlink" x="0px" y="0px"
	 width="40px" height="40px" viewBox="0 0 40 40" enable-background="new 0 0 40 40" xml:space="preserve">
<g>
	<path fill="#ABABAB" d="M2.176,37.586v-6.202c0-0.171,0.113-0.298,0.243-0.298h35.162c0.134,0,0.243,0.133,0.243,0.298v6.202
		c0,0.164-0.11,0.296-0.243,0.296H2.419C2.289,37.882,2.176,37.75,2.176,37.586z"/>
	<path fill="#ABABAB" d="M37.824,16.602v6.207c0,0.166-0.11,0.298-0.243,0.298H2.419c-0.13,0-0.243-0.135-0.243-0.298v-6.207
		c0-0.16,0.113-0.296,0.243-0.296h35.162C37.715,16.306,37.824,16.442,37.824,16.602z"/>
	<path fill="#ABABAB" d="M2.176,2.355c0-0.132,0.108-0.237,0.236-0.237h21.94c0.134,0,0.236,0.105,0.236,0.237v6.677
		c0,0.133-0.103,0.237-0.236,0.237H2.412c-0.13,0-0.236-0.104-0.236-0.237V2.355z"/>
</g>
</svg>
