<?xml version="1.0" encoding="UTF-8" standalone="no"?><svg width="19" height="17" viewBox="0 0 19 17" xmlns="http://www.w3.org/2000/svg"><title>60D09D03-11C8-45CE-89FD-0CDCF810A626</title><g id="Page-1"><g id="footer-recently-edited"><g id="Group-2"><path d="M10.853 0a8.137 8.137 0 0 0-8.14 8.143H0l3.524 3.524.063.13 3.65-3.654H4.525a6.334 6.334 0 0 1 12.666 0 6.334 6.334 0 0 1-6.333 6.333c-1.75 0-3.33-.715-4.474-1.86l-1.28 1.28a8.09 8.09 0 0 0 5.75 2.39c4.5 0 8.147-3.646 8.147-8.143A8.144 8.144 0 0 0 10.853 0zm-.9 4.524v4.524l3.872 2.298.65-1.1L11.31 8.37V4.523H9.952z" id="Page-1"/></g></g></g></svg>