<?xml version="1.0" encoding="utf-8"?>
<svg xmlns="http://www.w3.org/2000/svg" width="48" height="48" viewBox="-282.375 419.5 48 48" enable-background="new -282.375 419.5 48 48">
    <path fill="#555" d="M-252.692 457.249h7.582c.697 0 1.395-.463 1.625-1.084.309-.618.154-1.392-.388-1.935-2.476-2.552-3.016-6.345-3.48-9.979-.774-5.416-1.625-11.528-9.362-12.303v-1.006c0-1.005-.772-1.779-1.778-1.779-1.007 0-1.78.774-1.78 1.779v1.006c-7.66.775-8.511 6.887-9.285 12.303-.541 3.635-1.005 7.428-3.481 9.979-.464.543-.619 1.239-.386 1.935.309.621.928 1.084 1.624 1.084h7.427m5.88 2.167c-1.239 0-2.168-.929-2.245-2.167h4.487c-.076 1.16-1.084 2.167-2.242 2.167zm0-5.727h-9.827c1.47-2.862 1.935-6.035 2.322-8.976.851-6.266 1.547-9.284 7.505-9.284 6.035 0 6.729 3.018 7.582 9.284.385 2.94.851 6.113 2.32 8.976h-9.902z"/>
</svg>
