<?xml version="1.0" encoding="UTF-8" standalone="no"?>
<svg xmlns="http://www.w3.org/2000/svg" width="48" height="48" viewBox="-282.375 419.5 48 48" enable-background="new -282.375 419.5 48 48">
    <path d="M-249.122 464.146h11.915c1.095 0 2.192-.728 2.554-1.703.486-.971.242-2.187-.61-3.041-3.891-4.01-4.739-9.971-5.469-15.682-1.216-8.511-2.554-18.116-14.712-19.334v-1.581c0-1.579-1.213-2.796-2.794-2.796-1.582 0-2.797 1.216-2.797 2.796v1.581c-12.037 1.218-13.375 10.823-14.591 19.334-.85 5.712-1.579 11.673-5.47 15.682-.729.853-.973 1.947-.607 3.041.486.976 1.458 1.703 2.552 1.703h11.671m9.24 3.405c-1.947 0-3.407-1.46-3.528-3.405h7.051c-.119 1.823-1.703 3.405-3.523 3.405zm0-9h-15.443c2.31-4.497 3.041-9.484 3.649-14.105 1.337-9.847 2.431-14.589 11.794-14.589 9.484 0 10.574 4.743 11.915 14.589.605 4.62 1.337 9.606 3.646 14.105h-15.561z" id="path4" fill="#555"/>
</svg>
