<?xml version="1.0" encoding="UTF-8" standalone="no"?>
<svg xmlns="http://www.w3.org/2000/svg" viewBox="0 -410 2048 2048" width="24" height="24" fill="#777">
    <g id="g4">
        <path d="M1670.264-159.319q-108.757 0-108.757 124.824l1.236 109.993h216.278l-1.236-109.993q1.236-124.824-107.521-124.824zm0-144.597q102.577 0 171.787 77.86 69.209 77.86 69.209 190.324v111.229h108.757v484.462h-699.504v-484.462h109.993v-112.464q0-112.464 69.209-189.089 69.209-76.624 170.551-77.86zm-469.632 984.992h170.551l-795.902 716.807-510.416 55.614 108.757-498.057 1027.011-918.254v164.371l-892.301 805.789q32.132 22.245 96.398 86.511l795.902-719.278v306.496z" id="path6" fill="#777"/>
    </g>
</svg>
