<?xml version="1.0" encoding="UTF-8" standalone="no"?>
<svg xmlns="http://www.w3.org/2000/svg" viewBox="0 -410 2390.5 2047.9999" width="28" height="24">
    <g id="g4">
        <path d="M2157.676-3.692q0-123.588-106.458-123.588t-106.458 123.588v108.905h212.915v-108.905zm-106.458-265.533q77.091-1.223 138.273 47.722 107.681 85.656 100.34 291.229v35.486h106.458v477.224h-690.141v-477.224h102.787q-1.223-138.273 20.802-208.021 22.026-69.749 83.208-118.694 61.183-48.946 138.273-47.722zm-215.363 1509.987v-1.223l-368.32-323.044-244.73 144.391-450.305-471.106-73.42 29.367-476.001 621.615h1612.774zm-1814.677 206.798v-1561.381h1687.417q-18.355 45.276-19.578 94.221h-107.681v725.627h472.33v741.534h-2032.487z" id="path6" fill="#777"/>
    </g>
</svg>
