<svg xmlns="http://www.w3.org/2000/svg" width="28" height="21" viewBox="0 0 28 21">
    <title>
        uniE021 - translation
    </title>
    <g id="Page-1" fill="none" fill-rule="evenodd">
        <g id="uniE021---translation" fill="#777">
            <path d="M23.89 16l1.72 5h2.37L22.44 3.94h-3.3L13.34 21h2.37l1.59-5h6.59zm-3.3-10.09l2.77 8.13h-5.54l2.77-8.13z" id="Shape"/>
            <path d="M8.2 2.63h1.18L8.07 0H5.43l.66 1.31A2.34 2.34 0 0 0 8.2 2.63z" id="Shape"/>
            <path d="M16.51 4H.15v2h2.51c.79 2.27 1.98 4.24 3.69 6.08-1.85 1.44-4.09 2.23-6.33 3.01l.66 1.97c2.64-.79 5.01-1.83 7.25-3.54 1.19.92 2.77 1.84 4.62 2.36l.66-1.97c-1.45-.39-2.64-1.05-3.69-1.83 2.5-2.5 3.29-4.99 3.42-5.25l.27-.83h2.64l.66-2zm-8.58 6.67C6.61 9.41 5.43 7.77 4.9 6h6.2c-.66 1.77-1.85 3.28-3.17 4.67-2.11-2.15 0 0 0 0z" id="Shape"/>
        </g>
    </g>
</svg>
