<?xml version="1.0" encoding="UTF-8"?><svg xmlns="http://www.w3.org/2000/svg" viewBox="0 0 24 24"><path fill="#72777d" d="M10.55 2.06c2.287 0 4.43.88 6.04 2.49 3 3 3.37 7.654.88 11.083l-.143.204 4.285 4.285c.204.205.327.49.327.776A1.115 1.115 0 0 1 20.834 22c-.286 0-.572-.122-.776-.327l-4.245-4.244-.04-.044-.205.143a8.53 8.53 0 0 1-5.02 1.632 8.49 8.49 0 0 1-6.04-2.51A8.49 8.49 0 0 1 2 10.612 8.46 8.46 0 0 1 4.51 4.57a8.49 8.49 0 0 1 6.04-2.51zm5.083 13.613c2.796-2.795 2.796-7.346 0-10.142-1.368-1.344-3.164-2.1-5.082-2.1a7.117 7.117 0 0 0-5.06 2.1 7.236 7.236 0 0 0-2.1 5.08 7.13 7.13 0 0 0 2.08 5.064c1.37 1.347 3.165 2.103 5.083 2.103a7.164 7.164 0 0 0 5.083-2.103zm-.98-5.49c.265 0 .49.205.49.49 0 .266-.225.49-.49.49H6.776a.497.497 0 0 1-.49-.49c0-.265.224-.49.49-.49h7.877zm-7.837-1.49a.497.497 0 0 1-.49-.49c0-.264.225-.49.49-.49h7.878c.265 0 .49.226.49.49s-.225.49-.49.49H6.816zm4.613 3.94c.262 0 .49.224.49.49a.5.5 0 0 1-.49.49H6.813a.497.497 0 0 1-.49-.49c0-.266.225-.49.49-.49h4.613z"/></svg>