<?xml version="1.0" encoding="utf-8"?><svg xmlns="http://www.w3.org/2000/svg" width="40" height="40" viewBox="0 0 40 40"><path fill="#575757" d="M21.52 5.356c1.394 0 2.664.123 3.813.369s2.133.65 2.954 1.209c.822.561 1.458 1.307 1.908 2.237.45.93.676 2.078.676 3.446 0 1.476-.335 2.707-1.004 3.692-.671.983-1.663 1.791-2.975 2.42 1.805.519 3.152 1.429 4.041 2.727.886 1.3 1.332 2.866 1.332 4.697 0 1.477-.287 2.756-.861 3.836-.574 1.079-1.347 1.963-2.319 2.645-.969.685-2.078 1.191-3.323 1.519-1.244.328-2.521.492-3.835.492h-14.192v-29.289h13.785zm-.822 11.856c1.15 0 2.091-.275 2.83-.822.739-.546 1.109-1.435 1.109-2.666 0-.683-.123-1.243-.37-1.682-.245-.437-.573-.78-.984-1.025-.411-.246-.881-.417-1.415-.513-.533-.095-1.087-.144-1.662-.144h-6.029v6.852h6.521zm.368 12.427c.629 0 1.233-.061 1.805-.184.576-.123 1.082-.328 1.518-.616.438-.286.786-.676 1.047-1.168.26-.493.39-1.122.39-1.887 0-1.504-.426-2.578-1.273-3.22-.848-.642-1.968-.964-3.364-.964h-7.013v8.04h6.89z"/></svg>