<?xml version="1.0" encoding="utf-8"?><svg xmlns="http://www.w3.org/2000/svg" width="40" height="40" viewBox="0 0 40 40"><path fill="#fff" d="M28.871 23.087c-5.108 0-9.14 5.222-9.14 5.222s4.031 5.223 9.14 5.223c3.908 0 9.14-5.224 9.14-5.224s-5.232-5.221-9.14-5.221zm0 8.476c-1.794 0-3.255-1.458-3.255-3.255 0-1.794 1.461-3.255 3.255-3.255 1.793 0 3.254 1.46 3.254 3.255s-1.461 3.255-3.254 3.255zm0-5.153c-1.048 0-1.901.85-1.901 1.899s.851 1.9 1.901 1.9c1.048 0 1.9-.852 1.9-1.901.001-1.048-.851-1.898-1.9-1.898z"/><path fill="#fff" d="M28.288 12.584c-.073-1.423-.738-2.803-1.719-3.895-1.004-1.118-2.382-1.978-3.866-2.222l-19.18 17.206.013.008-.01-.005-1.537 6.916 7.09-.781.001.004.005-.004.008-.001-.003-.004c3.833-3.437 14.842-13.315 19.198-17.222zm-21.268 13.099c-.546-.547-1.008-.884-1.644-1.319l17.228-15.576c.582.18 1.389.649 1.635 1.322l-17.219 15.573z"/></svg>