<?xml version="1.0" encoding="UTF-8"?><svg xmlns="http://www.w3.org/2000/svg" width="850" height="606.667" viewBox="2.5 791.5 850.00001 606.667" enable-background="new 2.5 791.5 606.667 606.667"><path d="M513.5 1135.041v-76.082l-46.687-7.782c-3.46-12.536-8.646-24.64-14.699-35.447l27.235-38.474-53.604-54.037-38.475 27.235c-11.238-6.053-22.911-11.24-35.447-14.699l-7.782-46.255h-76.082l-7.782 46.688c-12.536 3.458-24.64 8.646-35.447 14.698l-38.474-27.234-54.037 53.604 27.235 38.474c-6.053 11.239-11.24 22.911-14.699 35.88l-46.255 7.35v76.082l46.255 7.782c3.458 12.536 8.646 24.64 14.699 35.88l-27.235 38.474 53.604 53.605 38.474-27.235c11.24 6.052 22.911 11.239 35.88 14.697l7.782 46.256h76.082l7.782-46.687c12.536-3.46 24.64-8.646 35.447-14.699l38.475 27.235 53.604-53.604-27.235-38.475c6.053-11.238 11.239-22.911 14.699-35.88l46.687-7.35zm-207.5 41.5c-44.094 0-79.541-35.879-79.541-79.541 0-44.094 35.879-79.541 79.541-79.541s79.541 35.447 79.541 79.541c0 44.095-35.446 79.541-79.541 79.541z" fill="#105ae1"/><path fill-rule="evenodd" d="M670.97 1157.195l67.144-114.595h-134.307z" fill="#105ae1"/></svg>