<?xml version="1.0" encoding="utf-8"?><svg xmlns="http://www.w3.org/2000/svg" width="40" height="40" viewBox="0 0 40 40"><g fill="#fff"><path d="M27.182 20.419v1.705h-1.86v10.484h1.86v1.705h-4.024v-13.894h4.024zM33.817 34.314v-1.705h1.86v-10.485h-1.86v-1.705h4.024v13.895h-4.024z"/></g><path fill="#fff" d="M28.332 12.605c-.073-1.426-.74-2.808-1.722-3.902-1.006-1.121-2.387-1.982-3.874-2.226-4.361 3.912-15.4 13.817-19.216 17.239l.013.008-.01-.005-1.54 6.929 7.104-.783.001.004.005-.004.008-.001-.003-.004c3.84-3.444 14.87-13.34 19.234-17.255zm-21.308 13.124c-.547-.548-1.01-.885-1.647-1.322l17.26-15.605c.583.18 1.391.65 1.638 1.325l-17.251 15.602z"/></svg>