<?xml version="1.0" encoding="UTF-8" standalone="no"?><svg xmlns="http://www.w3.org/2000/svg" viewBox="271.5 72.8 16 16" enable-background="new 271.5 72.8 437.1 431.8"><g><path d="M273.591 72.8c-2.032 0-2.091 1.907-2.091 2.032v13.968h13.909c2.032 0 2.091-1.907 2.091-2.032v-13.968h-13.909z" fill="#d0d0d0"/><g><circle cx="437" cy="234.1" r="28" fill="#fff" transform="matrix(.042 0 0 .042 259.047 68.752)"/><circle cx="553.5" cy="234.1" r="28" fill="#fff" transform="matrix(.042 0 0 .042 259.047 68.752)"/></g><path d="M279.879 85.338c-1.798 0-3.532-.617-4.582-1.609-.248-.248-.248-.68 0-.928s.68-.248.928 0c.806.806 2.167 1.239 3.654 1.239 1.424 0 2.789-.433 3.591-1.239.248-.248.68-.248.928 0s.248.68 0 .928c-1.113.987-2.722 1.609-4.519 1.609z" fill="#fff"/></g></svg>