<?xml version="1.0" encoding="UTF-8" standalone="no"?><svg xmlns="http://www.w3.org/2000/svg" viewBox="0 0 16 16" enable-background="new 0 0 960 560"><path enable-background="new" d="M2.112 0c-1.995 0-2.112 1.932-2.112 1.994v14.006h13.888c1.995 0 2.112-1.932 2.112-1.994v-14.006h-13.888zm.426 4.89s.726.726 2.295.726 2.233-.726 2.233-.726c0 1.026-1.027 1.811-2.295 1.811-1.269 0-2.233-.784-2.233-1.811zm8.935 6.517c-.543.3-1.148.542-1.811.726-.543.121-1.148.179-1.753.179-.726 0-1.39-.121-2.053-.3-.605-.179-1.206-.421-1.69-.726-.3-.179-.421-.605-.179-.905.179-.3.605-.421.906-.179.363.242.847.421 1.327.542 1.027.3 2.174.3 3.201.058.543-.121 1.027-.3 1.448-.542.3-.179.726-.058.906.242.125.305.004.726-.3.905zm-.058-4.706c-1.269 0-2.295-.847-2.295-1.811 0 0 .726.726 2.295.726s2.233-.726 2.233-.726c.063 1.026-.964 1.811-2.233 1.811z" fill="#e7beba"/></svg>